<?xml version="1.0" standalone="no"?>
<!DOCTYPE svg PUBLIC "-//W3C//DTD SVG 20010904//EN"
 "http://www.w3.org/TR/2001/REC-SVG-20010904/DTD/svg10.dtd">
<svg version="1.0" xmlns="http://www.w3.org/2000/svg"
 width="6000.000000pt" height="5999.000000pt" viewBox="0 0 6000.000000 5999.000000"
 preserveAspectRatio="xMidYMid meet">

<g transform="translate(0.000000,5999.000000) scale(0.100000,-0.100000)"
fill="#000000" stroke="none">
<path d="M19198 43278 c-25 -35 -81 -146 -118 -238 -12 -30 -29 -69 -36 -87
-12 -26 -14 -780 -14 -4894 0 -4461 1 -4868 16 -4928 9 -36 30 -90 46 -119 41
-74 126 -179 167 -205 69 -44 101 -63 178 -106 43 -24 98 -59 123 -76 25 -18
65 -42 90 -53 46 -22 57 -28 125 -72 22 -14 65 -39 95 -55 30 -15 74 -41 97
-57 23 -15 48 -28 57 -28 8 0 17 -4 21 -9 3 -6 26 -20 50 -32 25 -12 55 -33
67 -46 12 -13 27 -23 33 -23 17 0 95 -42 165 -90 14 -9 52 -32 85 -49 33 -18
83 -46 110 -62 28 -16 61 -34 75 -40 14 -6 48 -26 77 -45 28 -19 75 -46 105
-60 29 -15 74 -42 99 -60 26 -19 50 -34 55 -34 4 0 15 -6 23 -13 9 -8 32 -20
51 -27 19 -7 43 -20 53 -29 17 -14 101 -63 294 -171 51 -28 95 -55 98 -60 3
-4 40 -25 83 -46 42 -21 85 -45 95 -53 18 -15 82 -53 276 -163 52 -29 115 -65
140 -80 25 -15 60 -34 76 -43 17 -9 50 -29 75 -45 25 -16 56 -34 69 -40 13 -6
36 -19 51 -30 16 -11 33 -20 40 -20 6 0 26 -11 43 -24 34 -26 89 -58 149 -88
20 -10 40 -23 43 -29 4 -6 26 -19 49 -30 51 -23 126 -66 147 -85 8 -8 20 -14
25 -14 5 0 55 -27 109 -61 55 -33 129 -76 165 -96 36 -19 89 -48 117 -66 107
-65 169 -101 218 -126 70 -37 194 -112 201 -122 3 -5 13 -9 22 -9 9 -1 35 -14
57 -30 22 -16 63 -40 90 -54 55 -28 70 -37 132 -78 23 -15 44 -28 48 -28 7 0
87 -46 144 -82 14 -9 46 -27 71 -40 25 -12 68 -37 97 -55 29 -18 74 -44 100
-58 51 -27 73 -40 113 -65 14 -9 45 -27 70 -40 25 -13 68 -38 95 -56 28 -17
68 -41 90 -53 48 -26 50 -27 146 -85 42 -25 80 -46 85 -46 6 0 44 -21 85 -48
41 -26 92 -56 114 -67 22 -11 49 -27 60 -36 11 -9 40 -27 65 -40 92 -48 122
-96 82 -132 -10 -9 -45 -30 -77 -48 -33 -17 -67 -37 -75 -45 -9 -7 -47 -30
-85 -50 -39 -20 -93 -52 -122 -70 -28 -19 -58 -34 -66 -34 -8 0 -20 -7 -27
-15 -7 -8 -18 -15 -25 -15 -7 0 -18 -7 -25 -15 -14 -17 -90 -60 -123 -71 -12
-4 -46 -23 -76 -43 -30 -20 -83 -52 -117 -71 -78 -43 -170 -96 -294 -168 -52
-30 -113 -65 -136 -78 -22 -12 -60 -34 -83 -48 -23 -15 -52 -31 -64 -36 -23
-10 -42 -22 -92 -55 -16 -11 -39 -25 -50 -31 -94 -51 -137 -75 -181 -103 -28
-17 -54 -31 -57 -31 -3 0 -45 -25 -93 -55 -49 -30 -92 -55 -97 -55 -6 0 -38
-18 -73 -40 -35 -22 -89 -54 -121 -71 -32 -17 -67 -40 -79 -50 -11 -10 -26
-19 -33 -19 -7 0 -33 -13 -58 -30 -24 -16 -48 -30 -53 -30 -5 0 -21 -10 -37
-23 -15 -13 -47 -31 -71 -41 -23 -11 -47 -25 -53 -33 -6 -7 -18 -13 -26 -13
-8 0 -29 -11 -46 -24 -18 -13 -66 -42 -107 -64 -42 -22 -93 -51 -114 -65 -20
-15 -47 -29 -59 -33 -12 -3 -31 -14 -42 -24 -11 -10 -60 -39 -109 -64 -49 -25
-96 -51 -105 -59 -18 -15 -93 -59 -161 -94 -25 -13 -58 -32 -75 -43 -16 -11
-57 -33 -89 -50 -33 -16 -66 -36 -75 -43 -9 -8 -38 -25 -64 -38 -92 -46 -102
-52 -122 -70 -11 -10 -61 -39 -110 -64 -50 -26 -99 -54 -110 -64 -11 -10 -33
-25 -50 -33 -16 -8 -68 -36 -115 -63 -47 -26 -110 -61 -140 -78 -30 -16 -68
-39 -85 -51 -16 -12 -50 -30 -75 -41 -25 -11 -77 -41 -116 -67 -39 -26 -77
-48 -83 -48 -6 0 -33 -15 -59 -34 -27 -18 -58 -36 -69 -40 -12 -4 -27 -13 -33
-21 -7 -8 -21 -15 -31 -15 -9 0 -24 -6 -31 -12 -22 -21 -77 -58 -85 -58 -4 0
-44 -23 -88 -50 -44 -27 -98 -58 -120 -69 -22 -11 -61 -33 -87 -48 -26 -16
-89 -52 -140 -81 -51 -29 -147 -85 -213 -124 -66 -39 -143 -83 -171 -98 -28
-15 -64 -36 -80 -47 -16 -11 -63 -38 -104 -60 -41 -22 -95 -54 -120 -70 -25
-17 -64 -42 -87 -57 -38 -23 -161 -160 -172 -190 -2 -6 -15 -25 -28 -42 -12
-17 -23 -36 -23 -43 0 -6 -9 -40 -20 -74 -20 -61 -20 -85 -17 -1412 2 -907 6
-1364 14 -1392 17 -68 74 -173 136 -250 58 -72 68 -80 159 -126 26 -13 53 -29
60 -34 26 -21 115 -37 203 -36 110 0 138 6 226 49 38 19 72 34 75 34 3 0 18 8
32 19 15 10 52 32 82 48 57 31 233 132 430 248 63 37 140 80 170 97 30 17 87
50 126 74 39 24 74 44 78 44 3 0 35 17 69 38 34 20 71 43 82 49 11 7 39 21 63
32 24 12 57 32 72 45 16 13 63 40 104 59 41 20 77 40 81 46 3 6 32 23 63 38
31 15 89 47 128 72 70 45 155 94 272 156 31 17 84 48 116 69 32 21 68 42 80
47 12 5 28 13 36 19 41 26 151 90 156 90 5 0 188 107 281 165 23 14 72 42 109
61 37 19 79 43 93 53 14 10 59 35 99 56 39 20 75 41 78 46 3 5 42 28 87 51 45
22 100 53 123 69 22 15 67 42 100 59 32 17 73 40 89 51 17 10 44 26 60 34 17
9 51 28 76 43 25 15 86 49 135 76 49 27 91 53 94 56 3 3 46 29 95 57 78 44
160 91 305 175 19 11 53 29 75 41 22 12 65 37 95 56 30 20 84 52 120 71 153
82 216 118 285 161 40 26 83 50 95 54 13 4 44 22 69 40 25 17 69 42 96 55 28
13 64 34 82 46 17 13 35 24 39 24 4 0 22 11 40 25 18 14 39 25 46 25 7 1 31
14 53 30 22 16 69 44 105 61 36 18 85 46 110 64 25 17 65 42 90 54 25 12 52
26 60 31 56 35 151 90 154 90 2 0 46 25 97 55 51 30 97 55 101 55 8 0 67 38
78 50 11 12 99 60 110 60 7 0 29 13 49 29 20 15 72 47 116 70 44 24 87 48 95
55 8 7 49 29 90 50 41 21 82 44 91 52 14 13 56 36 152 85 20 11 65 37 98 59
34 22 71 42 82 46 12 4 43 21 69 39 26 18 68 43 95 55 26 13 57 31 68 41 11 9
60 38 110 64 49 25 97 52 105 60 8 7 48 29 87 50 40 20 75 41 79 46 3 6 29 21
57 35 104 51 132 66 148 81 9 7 32 22 50 32 66 35 126 69 269 153 80 47 159
93 175 102 17 9 48 28 70 41 22 13 69 38 105 56 36 18 85 47 110 65 26 18 66
42 90 53 56 26 83 43 93 59 4 6 17 12 27 12 10 0 21 4 24 9 3 5 25 18 48 30
24 12 77 42 118 67 140 84 195 100 236 69 10 -8 25 -15 33 -15 8 0 28 -11 45
-24 17 -13 65 -40 106 -62 41 -21 84 -45 95 -55 11 -9 60 -38 110 -63 49 -26
96 -53 105 -59 8 -7 42 -26 75 -42 33 -16 80 -44 105 -61 25 -18 74 -46 109
-63 35 -17 71 -37 80 -45 9 -7 45 -28 80 -45 35 -17 83 -45 108 -61 25 -17 68
-42 97 -56 28 -15 65 -36 81 -48 17 -12 48 -30 70 -41 22 -11 73 -40 115 -65
101 -60 108 -65 160 -91 25 -12 59 -32 75 -44 17 -12 37 -25 45 -29 8 -3 42
-22 75 -41 33 -19 83 -46 110 -60 57 -30 126 -70 176 -102 18 -13 38 -23 42
-23 5 0 40 -20 78 -45 38 -25 84 -52 102 -60 39 -17 101 -53 142 -80 17 -11
48 -29 70 -40 22 -10 52 -27 66 -37 15 -10 62 -36 105 -59 44 -22 95 -53 114
-68 19 -15 51 -33 70 -41 19 -8 56 -29 82 -47 26 -18 54 -33 62 -33 8 0 18 -5
22 -11 3 -6 21 -17 38 -25 17 -8 51 -28 76 -44 25 -16 72 -42 105 -58 33 -16
84 -45 113 -65 28 -21 56 -37 60 -37 5 0 46 -22 92 -50 46 -27 84 -50 86 -50
1 0 42 -23 91 -52 48 -28 117 -67 153 -85 35 -19 71 -40 80 -47 8 -7 51 -32
95 -56 44 -24 94 -53 111 -66 17 -13 43 -26 58 -30 14 -3 26 -9 26 -13 0 -4
15 -12 33 -19 17 -6 47 -25 65 -42 18 -16 40 -30 49 -30 9 0 39 -14 67 -32 89
-55 289 -168 298 -168 4 0 8 -4 8 -9 0 -5 22 -18 49 -30 27 -11 77 -39 111
-62 34 -22 78 -47 98 -56 20 -8 44 -21 52 -28 8 -7 49 -31 91 -53 42 -22 96
-53 120 -68 24 -15 73 -43 109 -62 36 -19 72 -40 80 -46 8 -7 50 -31 92 -54
42 -23 97 -55 121 -72 25 -16 52 -30 60 -30 8 0 20 -7 27 -15 7 -8 17 -15 22
-15 5 0 28 -13 51 -29 23 -15 71 -44 107 -63 36 -19 87 -48 113 -64 26 -16 72
-42 102 -59 183 -101 234 -130 265 -150 19 -13 61 -37 92 -53 32 -17 70 -39
85 -50 15 -11 56 -33 91 -50 35 -18 82 -45 105 -61 40 -28 156 -93 277 -157
32 -16 74 -42 93 -57 20 -15 46 -31 59 -37 13 -5 30 -14 38 -19 8 -4 31 -16
50 -26 19 -10 48 -29 63 -42 16 -13 37 -23 46 -23 10 0 29 -8 42 -18 30 -22
115 -72 248 -143 18 -10 41 -24 50 -32 17 -15 42 -29 128 -71 28 -14 54 -29
57 -35 4 -6 35 -24 71 -41 35 -17 87 -46 115 -65 29 -19 56 -35 60 -35 12 0
131 -70 156 -92 11 -10 25 -18 31 -18 10 0 154 -79 163 -90 3 -4 41 -26 85
-50 44 -24 84 -49 88 -57 4 -7 14 -13 22 -13 17 0 117 -53 160 -84 17 -12 75
-42 130 -66 l100 -43 126 0 c117 -1 129 1 170 25 24 14 55 29 69 33 42 13 133
82 168 127 18 24 46 60 61 81 16 20 42 67 57 105 l29 67 3 1389 c3 1517 5
1432 -53 1546 -30 58 -159 208 -189 219 -12 5 -27 16 -34 24 -7 8 -27 21 -45
28 -18 7 -43 24 -57 36 -14 13 -30 23 -37 23 -7 0 -45 20 -85 45 -73 46 -81
50 -128 75 -72 38 -110 60 -154 88 -28 18 -55 32 -62 32 -6 0 -23 9 -38 21
-25 20 -101 64 -161 95 -16 8 -43 23 -60 34 -16 11 -67 38 -112 61 -46 23 -83
45 -83 51 0 5 -21 18 -46 30 -26 11 -70 34 -98 51 -48 28 -148 85 -348 199
-48 27 -90 54 -93 59 -4 5 -13 9 -21 9 -8 0 -27 8 -42 19 -41 28 -212 127
-252 145 -41 19 -88 47 -147 87 -23 16 -47 29 -54 29 -7 0 -26 10 -43 23 -27
20 -68 43 -168 94 -14 7 -28 19 -31 26 -3 7 -23 19 -45 25 -21 7 -56 23 -76
37 -20 14 -40 25 -43 25 -3 0 -21 11 -39 25 -18 14 -52 34 -76 45 -24 11 -52
25 -62 32 -68 44 -127 78 -161 92 -22 9 -42 20 -45 25 -3 4 -39 26 -81 48 -42
22 -90 49 -105 60 -16 11 -69 42 -119 68 -49 26 -97 53 -105 61 -9 7 -31 20
-50 29 -19 9 -44 22 -55 28 -11 7 -49 29 -85 50 -36 21 -72 42 -80 47 -8 5
-33 18 -55 29 -22 10 -55 31 -74 45 -19 14 -39 26 -43 26 -5 0 -45 23 -89 50
-44 28 -84 50 -89 50 -4 0 -13 7 -20 15 -7 8 -19 15 -26 15 -8 0 -52 25 -99
55 -46 30 -91 55 -100 55 -9 0 -33 13 -53 29 -20 16 -73 48 -117 71 -44 23
-94 53 -112 66 -17 13 -36 24 -41 24 -12 0 -131 67 -152 85 -8 7 -31 20 -50
28 -40 18 -113 59 -120 68 -3 3 -43 26 -90 51 -47 25 -103 57 -124 72 -21 14
-43 26 -47 26 -10 0 -157 87 -180 107 -8 7 -22 13 -30 13 -8 1 -32 14 -54 30
-22 16 -61 39 -87 51 -26 11 -53 27 -59 35 -6 8 -18 14 -27 14 -8 0 -29 11
-46 24 -17 13 -65 40 -106 62 -41 21 -84 46 -95 55 -11 9 -41 28 -66 41 -80
40 -134 70 -139 78 -3 4 -25 16 -50 27 -57 25 -72 44 -68 84 3 27 11 36 54 58
27 14 63 36 78 49 16 12 33 22 38 22 4 0 37 18 72 40 35 22 68 40 75 40 6 0
11 5 11 11 0 5 20 19 45 30 24 11 47 24 50 29 3 6 13 10 21 10 7 0 35 15 61
33 27 19 82 51 123 72 41 21 79 44 83 51 4 8 15 14 23 14 8 0 32 11 52 25 20
14 40 25 45 25 4 0 34 17 65 37 31 20 82 50 112 66 30 16 62 35 70 43 9 7 51
32 95 55 44 23 91 49 105 59 14 9 56 34 95 54 38 20 76 43 85 51 8 7 26 19 40
25 23 10 64 33 164 92 21 13 51 30 65 38 15 8 57 33 94 55 37 22 80 47 96 56
16 8 62 35 102 59 88 53 140 80 152 80 5 0 27 16 50 35 22 19 46 35 53 35 6 0
17 6 23 14 7 8 24 17 39 21 15 4 41 17 57 29 17 13 48 33 70 45 22 12 47 25
55 30 8 5 52 31 98 57 46 26 85 51 88 56 3 4 12 8 21 8 9 0 30 11 47 23 17 13
67 43 111 66 44 24 87 49 95 56 8 8 44 28 79 45 36 18 87 48 114 67 28 20 64
42 81 49 17 8 54 28 81 45 28 16 59 34 70 39 11 6 27 14 35 19 8 5 22 12 30
15 8 4 35 19 60 36 25 16 81 49 125 75 88 50 101 58 162 97 22 14 52 29 65 33
12 4 32 15 43 25 19 16 35 25 130 73 22 11 48 27 57 35 20 17 65 42 135 76 28
14 54 30 58 36 4 6 30 22 58 36 51 25 99 53 148 85 62 41 230 137 282 161 32
15 80 43 107 63 26 19 65 42 86 51 21 9 68 36 106 60 37 24 70 44 73 44 3 0
39 20 80 45 41 25 106 62 145 81 38 20 72 40 75 45 3 4 25 17 48 28 51 25 92
49 134 79 17 12 36 22 42 22 11 0 23 7 98 58 18 12 35 22 39 22 4 0 15 6 23
14 9 8 43 28 76 46 33 18 108 63 166 101 91 60 114 81 167 153 34 46 62 89 62
95 0 7 7 22 14 34 8 12 22 49 30 82 14 52 16 243 17 1610 0 1443 2 1552 18
1579 35 60 40 59 166 -13 28 -16 86 -47 130 -70 44 -22 96 -50 115 -60 19 -11
58 -30 85 -43 28 -12 63 -33 78 -45 16 -13 37 -23 47 -23 10 0 21 -4 24 -8 3
-5 56 -34 118 -66 119 -61 150 -77 196 -100 15 -8 79 -41 142 -74 63 -32 131
-69 150 -81 19 -11 42 -21 51 -21 9 0 22 -6 28 -13 6 -8 57 -37 113 -66 57
-29 114 -59 128 -67 14 -8 50 -25 80 -39 72 -33 132 -67 145 -81 5 -7 24 -15
40 -19 17 -3 53 -22 82 -41 28 -19 59 -34 68 -34 9 0 28 -8 43 -18 65 -43 157
-92 172 -92 6 0 34 -15 63 -33 29 -18 86 -50 127 -71 100 -49 403 -207 460
-239 25 -14 70 -38 100 -52 30 -14 66 -32 80 -39 96 -53 143 -77 280 -149 85
-44 172 -91 192 -104 21 -12 43 -23 51 -23 7 0 23 -7 35 -16 13 -8 71 -40 130
-70 240 -123 328 -170 352 -186 13 -10 30 -18 37 -18 7 0 37 -16 67 -35 30
-19 61 -35 69 -35 7 0 18 -5 24 -11 15 -15 104 -47 178 -65 116 -27 220 -17
322 31 18 9 49 23 70 33 53 25 198 171 213 216 6 20 24 57 38 83 l27 48 0
4167 c0 3320 -3 4170 -12 4180 -7 6 -13 20 -13 29 0 9 -6 22 -14 28 -8 7 -18
26 -21 42 -8 38 -147 207 -180 219 -13 5 -41 20 -62 33 -32 20 -72 35 -143 55
-8 2 -45 6 -83 9 -68 5 -219 -23 -277 -52 -14 -6 -43 -20 -65 -30 -22 -11 -54
-29 -72 -42 -17 -13 -38 -23 -46 -23 -8 0 -26 -9 -40 -20 -14 -11 -31 -20 -39
-20 -8 0 -18 -4 -23 -9 -6 -5 -55 -33 -110 -62 -55 -29 -145 -76 -200 -105
-55 -29 -120 -62 -145 -74 -25 -11 -52 -24 -60 -30 -8 -5 -30 -17 -49 -25 -19
-9 -41 -21 -49 -27 -7 -7 -44 -26 -80 -43 -37 -17 -96 -47 -132 -67 -71 -40
-274 -146 -495 -258 -77 -39 -144 -76 -150 -81 -5 -5 -15 -9 -22 -9 -7 0 -36
-15 -65 -34 -29 -18 -78 -44 -108 -57 -30 -12 -66 -31 -79 -41 -13 -9 -49 -29
-80 -43 -31 -14 -67 -33 -81 -41 -14 -8 -66 -35 -116 -59 -49 -24 -96 -50
-103 -59 -8 -9 -19 -16 -26 -16 -8 0 -51 -20 -97 -44 -135 -71 -142 -75 -158
-81 -8 -4 -42 -22 -75 -41 -33 -18 -96 -52 -140 -74 -75 -38 -102 -52 -165
-87 -14 -8 -41 -21 -60 -30 -19 -8 -46 -23 -60 -33 -14 -9 -36 -21 -50 -25
-14 -4 -44 -20 -67 -35 -22 -16 -52 -31 -65 -35 -12 -4 -34 -16 -47 -26 -13
-11 -29 -19 -35 -19 -6 0 -24 -7 -41 -16 -217 -116 -274 -146 -447 -234 -31
-16 -59 -33 -63 -39 -3 -6 -12 -11 -19 -11 -7 0 -59 -25 -115 -55 -121 -65
-158 -70 -168 -25 -3 17 -10 33 -14 36 -5 3 -9 459 -9 1031 l0 1026 -22 45
c-28 54 -85 105 -137 120 -29 9 -2396 12 -9698 12 l-9661 0 -24 -32z m16095
-2248 c70 -15 66 13 67 -590 0 -526 -1 -546 -20 -577 l-20 -33 -6424 0 c-4728
0 -6432 3 -6450 11 -13 6 -27 21 -30 33 -3 11 -6 267 -6 567 0 574 -1 563 45
587 25 14 12779 16 12838 2z m46 -3504 c21 -19 21 -22 21 -586 0 -564 0 -567
-21 -586 -21 -19 -142 -19 -6455 -19 -6427 0 -6433 0 -6454 20 -19 20 -20 33
-20 585 l-1 565 26 23 26 22 6429 -2 c6305 -3 6428 -3 6449 -22z m-1552 -3472
c12 -3 25 -15 29 -26 8 -26 -20 -56 -83 -88 -26 -13 -61 -34 -78 -46 -16 -11
-43 -28 -60 -36 -57 -29 -130 -70 -140 -78 -11 -9 -64 -39 -135 -77 -24 -13
-51 -30 -60 -37 -8 -8 -49 -31 -90 -51 -41 -21 -94 -51 -117 -66 -23 -16 -52
-34 -65 -39 -13 -6 -32 -16 -43 -23 -245 -145 -354 -207 -360 -207 -3 0 -30
-16 -60 -35 -30 -19 -85 -51 -122 -71 -37 -20 -75 -42 -83 -49 -8 -7 -55 -34
-105 -60 -49 -26 -97 -53 -105 -60 -8 -7 -53 -33 -100 -59 -107 -60 -205 -116
-250 -144 -19 -12 -57 -34 -85 -48 -27 -14 -68 -36 -90 -50 -22 -13 -69 -40
-105 -60 -36 -20 -81 -47 -100 -59 -45 -29 -94 -57 -150 -88 -86 -46 -245
-139 -258 -149 -7 -6 -47 -29 -89 -50 -43 -21 -84 -45 -93 -52 -8 -7 -49 -31
-91 -53 -42 -22 -90 -49 -105 -60 -16 -12 -54 -34 -84 -51 -112 -62 -217 -122
-294 -169 -44 -26 -93 -54 -110 -61 -17 -7 -37 -19 -46 -26 -8 -8 -55 -35
-105 -61 -49 -27 -97 -54 -105 -60 -8 -7 -55 -34 -105 -61 -49 -26 -97 -53
-106 -61 -15 -13 -48 -31 -124 -71 -16 -8 -43 -24 -59 -35 -15 -11 -63 -38
-105 -60 -42 -22 -83 -46 -91 -53 -9 -7 -47 -30 -85 -49 -39 -20 -84 -47 -101
-60 -39 -30 -142 -77 -169 -77 -26 -1 -198 85 -235 117 -8 7 -40 25 -70 40
-30 15 -73 40 -95 54 -22 15 -58 36 -80 46 -22 11 -79 44 -126 73 -48 28 -90
52 -93 52 -3 0 -38 20 -79 45 -40 24 -96 57 -124 72 -27 15 -83 46 -122 68
-40 22 -89 51 -109 64 -21 13 -75 44 -122 69 -47 25 -92 51 -100 58 -8 6 -51
31 -95 54 -44 24 -87 48 -95 55 -8 7 -44 28 -80 47 -87 46 -221 123 -297 170
-34 21 -67 38 -72 38 -4 0 -14 7 -21 15 -7 8 -19 15 -27 15 -8 0 -29 11 -46
24 -18 13 -68 42 -112 66 -44 23 -87 47 -95 54 -8 7 -51 32 -95 56 -44 23
-105 57 -135 75 -30 18 -98 57 -150 87 -52 30 -142 82 -200 116 -58 33 -114
64 -125 68 -11 4 -33 17 -50 30 -16 12 -66 41 -110 64 -44 24 -87 49 -95 56
-8 7 -52 31 -98 54 -45 23 -84 46 -87 50 -3 4 -27 19 -53 33 -69 36 -125 68
-137 77 -5 5 -46 27 -90 50 -44 23 -93 52 -110 64 -16 13 -39 26 -49 30 -11 4
-61 31 -110 60 -50 29 -122 71 -160 92 -38 21 -105 60 -150 86 -44 26 -121 70
-171 98 -427 241 -450 256 -453 290 -2 20 2 36 10 41 15 10 9760 12 9795 3z"/>
<path d="M44901 20462 c-674 -1 -1098 -6 -1106 -12 -6 -5 -31 -12 -55 -16 -25
-4 -49 -10 -55 -14 -5 -3 -30 -13 -55 -20 -25 -8 -49 -20 -53 -27 -4 -7 -17
-13 -27 -13 -10 0 -21 -4 -25 -9 -3 -6 -30 -21 -59 -35 -37 -18 -87 -58 -155
-127 -56 -55 -101 -106 -101 -113 0 -7 -9 -21 -21 -32 -11 -10 -29 -35 -38
-54 -10 -19 -26 -48 -35 -65 -9 -16 -16 -37 -16 -45 0 -8 -7 -24 -15 -34 -8
-11 -15 -29 -15 -41 0 -12 -5 -26 -10 -31 -6 -6 -17 -63 -24 -127 -12 -98 -12
-137 0 -239 7 -66 18 -126 23 -131 6 -6 11 -19 11 -29 0 -23 77 -183 96 -199
8 -6 14 -20 14 -30 0 -11 5 -19 10 -19 6 0 14 -8 18 -19 17 -44 135 -162 218
-219 58 -39 225 -122 247 -122 10 0 28 -6 40 -14 46 -29 201 -36 771 -36 478
0 579 -2 644 -16 42 -9 84 -22 93 -30 8 -8 27 -14 40 -14 15 0 37 -12 54 -30
16 -16 35 -30 42 -30 18 0 153 -137 153 -154 0 -8 7 -20 16 -27 9 -7 20 -22
25 -34 5 -11 13 -27 18 -35 6 -8 21 -42 36 -75 14 -33 30 -68 35 -77 6 -10 10
-30 10 -45 0 -16 7 -41 15 -56 19 -38 30 -296 16 -397 -13 -100 -30 -178 -46
-215 -7 -16 -18 -43 -25 -60 -13 -31 -25 -55 -57 -115 -52 -98 -267 -290 -325
-290 -7 0 -23 -6 -33 -14 -11 -8 -47 -17 -80 -21 -101 -12 -1277 -17 -1289 -5
-5 5 -40 10 -76 10 -39 0 -73 5 -85 14 -11 7 -34 17 -52 20 -17 4 -37 14 -44
22 -6 8 -16 14 -22 14 -30 0 -237 178 -237 203 0 5 -11 23 -25 41 -14 18 -25
36 -25 41 0 4 -9 26 -19 49 -30 65 -51 144 -51 195 -1 66 -15 132 -31 142 -8
5 -33 9 -56 9 -33 0 -46 -5 -62 -26 -20 -26 -21 -38 -21 -375 0 -335 8 -439
32 -439 5 0 13 -11 18 -25 5 -14 18 -28 27 -32 10 -4 29 -15 42 -25 23 -17 74
-18 1164 -18 1112 0 1252 3 1281 31 6 5 26 9 46 9 20 0 45 7 56 15 10 8 29 15
41 15 28 0 193 78 193 92 0 3 10 10 22 14 12 3 33 17 47 30 14 13 30 24 36 24
12 0 175 162 175 174 0 4 17 29 38 55 40 49 58 77 68 101 4 8 14 33 24 55 42
95 49 112 55 145 3 19 10 44 15 55 20 46 39 303 24 318 -4 3 -9 37 -11 74 -3
37 -9 73 -15 80 -5 7 -12 27 -15 45 -3 18 -8 38 -12 43 -4 6 -13 29 -21 53 -7
23 -19 47 -27 53 -7 6 -13 22 -13 35 0 13 -4 24 -9 24 -10 0 -25 25 -54 85
-19 41 -224 245 -270 270 -20 11 -37 23 -37 27 0 5 -6 8 -14 8 -7 0 -30 11
-50 25 -20 14 -43 25 -50 25 -8 0 -19 7 -26 15 -7 8 -24 15 -39 15 -15 0 -32
5 -39 12 -6 6 -33 15 -59 19 -27 4 -68 13 -93 20 -31 8 -241 14 -690 18 -652
7 -654 7 -735 42 -11 5 -32 17 -46 27 -14 9 -43 29 -65 43 -60 40 -186 210
-199 267 -3 17 -13 36 -21 43 -8 6 -14 28 -14 48 0 20 -7 47 -17 60 -24 35
-24 451 1 496 9 17 16 44 16 60 0 17 7 39 15 49 8 11 15 30 15 42 0 12 7 27
15 34 8 7 15 20 15 29 0 10 11 28 25 41 14 13 25 28 25 34 0 15 109 136 123
136 7 0 30 14 51 30 22 17 44 30 49 30 6 0 19 8 30 18 18 16 77 17 916 19 493
0 901 2 907 2 6 1 23 12 38 26 42 39 33 124 -14 136 -8 2 -507 3 -1109 1z"/>
<path d="M14304 20445 c-10 -8 -36 -15 -57 -15 -20 0 -45 -4 -55 -10 -28 -15
-128 -60 -135 -60 -12 0 -125 -82 -154 -111 -15 -15 -33 -29 -39 -29 -23 0
-176 -192 -200 -250 -6 -15 -50 -110 -66 -142 -4 -10 -8 -27 -8 -38 0 -11 -7
-31 -16 -44 -22 -35 -23 -377 0 -421 9 -17 16 -43 16 -58 0 -35 65 -180 102
-228 15 -20 28 -42 28 -47 0 -6 52 -62 115 -125 85 -83 132 -121 179 -145 36
-18 68 -37 71 -42 3 -6 14 -10 23 -10 9 0 30 -7 46 -15 15 -8 38 -15 50 -15
12 0 31 -6 42 -14 42 -30 174 -36 757 -36 320 -1 600 -5 622 -10 22 -5 54 -12
70 -16 37 -8 113 -42 121 -55 3 -5 12 -9 21 -9 9 0 37 -19 63 -42 25 -24 58
-52 73 -62 15 -10 27 -24 27 -31 0 -6 9 -20 21 -31 12 -10 30 -35 41 -54 10
-19 30 -54 43 -76 12 -23 26 -55 30 -72 3 -17 13 -36 21 -43 8 -6 14 -26 14
-44 0 -19 5 -35 12 -37 36 -12 39 -526 3 -568 -7 -8 -15 -35 -19 -59 -4 -24
-13 -53 -21 -64 -8 -12 -15 -32 -15 -44 0 -13 -4 -23 -9 -23 -5 0 -19 -20 -30
-44 -12 -24 -30 -51 -41 -61 -11 -10 -20 -23 -20 -30 0 -11 -117 -137 -158
-168 -12 -9 -29 -17 -37 -17 -9 0 -18 -6 -21 -14 -3 -8 -20 -17 -39 -20 -18
-4 -38 -13 -45 -21 -8 -10 -31 -15 -69 -15 -31 0 -62 -5 -67 -10 -11 -11
-1169 -7 -1306 5 -47 4 -81 12 -89 21 -6 8 -21 14 -33 14 -25 0 -126 50 -174
87 -88 67 -222 234 -222 277 0 6 -7 22 -16 34 -8 12 -18 48 -21 80 -3 31 -11
63 -16 71 -6 7 -13 45 -15 84 -2 41 -8 75 -15 79 -7 4 -33 8 -59 8 -82 0 -78
20 -78 -419 l0 -388 35 -47 c20 -25 42 -46 50 -46 8 0 24 -9 35 -20 20 -20 33
-20 1158 -19 1171 0 1165 0 1337 39 53 12 57 13 147 54 31 14 60 26 63 26 4 0
27 14 52 30 24 17 51 30 59 30 26 0 287 270 313 325 14 28 33 62 42 76 10 14
21 38 25 54 4 16 13 40 20 54 8 14 14 35 14 47 0 11 5 25 11 31 14 14 29 112
36 238 6 107 -10 251 -32 300 -8 17 -17 49 -20 72 -4 23 -13 47 -21 54 -8 6
-14 19 -15 28 0 9 -11 34 -24 56 -14 22 -31 54 -39 70 -8 17 -26 41 -40 54
-14 14 -26 30 -26 37 0 15 -177 194 -193 194 -6 0 -21 9 -33 21 -30 28 -212
119 -239 119 -13 0 -28 6 -34 14 -6 8 -26 16 -44 19 -18 3 -54 11 -82 18 -34
8 -259 13 -707 18 -505 5 -660 9 -670 19 -6 6 -18 12 -26 12 -8 0 -25 9 -39
20 -14 11 -35 20 -45 20 -23 0 -178 150 -201 195 -43 83 -74 154 -84 190 -7
22 -20 63 -29 90 -15 41 -18 83 -18 230 0 197 9 249 64 380 7 17 16 37 21 45
5 8 11 21 14 28 19 48 33 70 75 116 66 74 120 120 170 147 27 14 57 32 66 40
14 12 163 14 918 17 663 1 907 5 924 14 13 7 22 21 22 35 0 13 5 23 10 23 6 0
10 9 10 20 0 11 -4 20 -9 20 -5 0 -11 10 -13 23 l-3 22 -1116 3 c-969 2 -1118
0 -1135 -13z"/>
<path d="M17457 20442 c-26 -29 -22 -85 9 -115 l26 -26 1056 -3 1057 -3 35
-22 c19 -13 41 -23 49 -23 8 0 33 -16 57 -35 23 -19 46 -35 51 -35 11 0 133
-123 133 -133 0 -5 11 -23 25 -41 14 -18 25 -37 25 -43 0 -5 9 -18 20 -28 11
-10 20 -25 20 -34 0 -9 7 -25 15 -35 8 -11 15 -27 15 -36 0 -9 7 -31 16 -49
38 -77 70 -427 46 -511 -6 -19 -18 -72 -28 -118 -10 -46 -21 -85 -26 -88 -4
-3 -8 -13 -8 -23 0 -10 -6 -24 -14 -30 -8 -7 -17 -27 -20 -45 -4 -19 -13 -39
-21 -46 -8 -7 -15 -17 -15 -22 0 -13 -83 -118 -92 -118 -5 0 -8 -6 -8 -12 0
-14 -43 -58 -56 -58 -4 0 -20 -12 -35 -26 -36 -34 -53 -44 -176 -101 -34 -16
-89 -18 -529 -21 -407 -3 -492 -1 -502 10 -8 10 -12 172 -14 570 l-3 557 -34
35 c-62 64 -74 66 -330 66 -242 0 -277 -5 -324 -48 -47 -42 -47 -47 -48 -711
-1 -344 -5 -927 -8 -1296 -7 -670 -7 -670 -30 -712 -23 -43 -122 -143 -141
-143 -6 0 -18 -7 -26 -15 -9 -8 -30 -15 -47 -15 -37 0 -98 -20 -121 -39 -21
-17 -21 -78 0 -119 l15 -32 728 0 c552 0 730 3 739 12 7 7 12 36 12 66 0 47
-4 56 -32 83 -26 23 -42 29 -76 29 -81 0 -180 73 -234 174 l-33 61 -5 360 c-3
198 -2 430 1 515 5 145 8 159 35 215 29 60 105 145 129 145 7 0 18 7 25 15 7
8 20 15 29 15 9 0 30 8 46 17 43 24 241 24 275 0 14 -9 37 -17 53 -17 15 0 30
-7 33 -15 4 -8 14 -15 24 -15 29 0 171 -149 203 -212 15 -31 34 -62 43 -69 8
-7 22 -26 30 -43 8 -17 26 -49 39 -71 14 -22 28 -47 32 -55 3 -8 19 -31 35
-50 15 -19 28 -38 28 -43 0 -5 11 -23 25 -41 14 -18 25 -38 25 -43 0 -6 7 -16
15 -23 8 -7 15 -19 15 -27 0 -9 12 -30 28 -48 33 -41 72 -103 72 -116 0 -5 16
-32 35 -59 19 -27 35 -52 35 -56 0 -3 11 -20 25 -38 14 -18 25 -37 25 -41 0
-4 11 -22 23 -39 13 -17 27 -49 31 -71 4 -22 12 -46 18 -52 11 -14 7 -48 -13
-127 -13 -48 -62 -116 -85 -116 -6 0 -17 -7 -24 -15 -7 -8 -22 -15 -33 -15
-12 0 -41 -7 -64 -16 l-43 -17 0 -63 c0 -34 3 -69 6 -78 6 -14 88 -16 829 -16
735 0 825 2 839 16 19 19 22 124 4 142 -7 7 -31 12 -54 12 -24 0 -46 5 -49 10
-3 6 -39 10 -78 10 -44 0 -83 6 -101 15 -15 8 -34 15 -41 15 -39 0 -223 117
-248 157 -4 7 -15 13 -22 13 -8 0 -15 5 -15 10 0 6 -19 32 -42 58 -45 49 -49
55 -97 137 -16 28 -36 57 -43 65 -16 17 -32 44 -51 86 -8 17 -20 34 -25 38 -6
3 -20 26 -32 50 -11 24 -27 47 -35 50 -8 3 -15 14 -15 24 0 11 -7 25 -15 32
-8 7 -15 17 -15 23 0 6 -6 18 -14 26 -8 9 -26 39 -41 66 -16 28 -40 66 -54 85
-15 19 -36 53 -46 75 -11 22 -30 53 -42 68 -13 16 -23 34 -23 41 0 7 -10 21
-21 32 -12 10 -25 28 -30 39 -5 11 -23 43 -39 70 -16 28 -33 57 -37 65 -3 8
-15 26 -25 39 -12 16 -18 41 -18 80 0 51 3 60 33 88 32 31 90 63 112 63 7 0
18 7 25 15 7 8 23 15 36 15 12 0 29 7 38 15 8 8 32 25 54 38 22 12 57 34 78
48 46 31 214 197 214 211 0 5 16 29 35 52 19 24 35 48 35 53 0 6 7 16 15 23 8
7 15 25 15 40 0 15 6 33 14 39 20 16 66 151 66 192 0 14 6 31 13 38 9 9 12 59
12 181 0 122 -3 172 -12 182 -7 6 -13 29 -13 50 0 21 -9 57 -19 81 -11 23 -22
57 -26 75 -4 17 -10 32 -13 32 -4 0 -18 24 -32 53 -14 28 -40 75 -58 102 -35
52 -239 265 -255 265 -5 0 -27 13 -50 28 -77 51 -171 98 -216 108 -14 3 -33 8
-41 12 -92 36 -90 36 -1381 39 -1208 3 -1256 2 -1272 -15z"/>
<path d="M22057 20453 c-4 -3 -7 -35 -7 -70 0 -59 1 -63 23 -63 13 0 27 -4 33
-9 5 -6 400 -11 994 -13 919 -3 987 -4 1010 -20 13 -10 32 -18 41 -18 49 0
263 -130 292 -177 4 -7 14 -13 21 -13 14 0 56 -41 56 -55 0 -4 20 -30 45 -56
25 -26 45 -54 45 -62 0 -7 11 -24 25 -37 14 -13 25 -31 25 -41 0 -10 4 -20 9
-23 13 -8 51 -84 51 -102 0 -8 5 -25 12 -37 21 -38 59 -151 64 -192 4 -22 12
-47 20 -56 8 -9 14 -38 14 -71 0 -37 5 -60 15 -68 10 -8 15 -31 15 -69 0 -31
4 -61 9 -66 10 -11 14 -61 31 -360 8 -145 8 -255 0 -400 -15 -269 -40 -479
-60 -499 -5 -5 -10 -32 -10 -59 0 -27 -7 -61 -15 -75 -8 -15 -18 -47 -24 -72
-13 -59 -49 -162 -61 -174 -6 -6 -10 -17 -10 -25 0 -15 -69 -161 -81 -171 -3
-3 -22 -30 -41 -60 -19 -30 -45 -64 -57 -74 -11 -11 -21 -22 -21 -26 0 -28
-235 -210 -272 -210 -7 0 -28 -9 -46 -20 -18 -11 -47 -20 -65 -20 -18 0 -39
-6 -45 -12 -20 -20 -618 -46 -635 -29 -6 6 -26 11 -45 11 -58 0 -149 65 -196
140 -57 89 -56 77 -56 864 0 688 -1 727 -19 768 -24 55 -65 93 -116 107 -47
13 -390 14 -455 2 -34 -7 -55 -20 -92 -59 l-48 -51 -1 -273 c-1 -150 -4 -496
-8 -768 -8 -541 -3 -498 -65 -606 -26 -46 -148 -124 -194 -124 -17 0 -51 -9
-76 -20 l-46 -19 0 -64 c0 -44 5 -68 14 -76 20 -17 1972 -8 2061 8 33 6 92 16
131 20 40 5 81 14 92 20 12 6 36 11 54 11 19 0 43 7 54 15 10 8 28 15 38 15
36 0 161 45 187 67 8 7 27 13 41 13 14 0 31 7 38 15 7 8 19 15 27 15 8 0 29
11 47 25 18 14 36 25 40 25 7 0 82 52 172 119 68 52 214 198 214 216 0 6 14
24 30 40 17 16 30 33 30 38 0 4 11 23 25 41 14 18 25 37 25 42 0 5 14 27 30
48 17 22 30 49 30 59 0 11 6 28 13 36 16 18 57 118 57 136 0 7 7 18 15 25 8 7
15 24 15 39 0 15 6 35 14 46 7 11 16 43 20 70 4 28 14 70 21 95 8 25 19 83 25
130 6 47 15 101 21 120 6 22 9 160 6 360 -3 273 -7 345 -25 450 -12 69 -27
136 -33 150 -6 14 -14 47 -16 75 -2 27 -11 57 -19 66 -8 8 -14 29 -14 46 0 17
-7 36 -15 43 -8 7 -15 19 -15 26 0 8 -4 23 -10 34 -5 11 -14 29 -20 40 -5 11
-10 26 -10 34 0 7 -7 19 -15 26 -8 7 -15 20 -15 30 0 9 -11 32 -25 51 -13 19
-30 48 -38 64 -8 17 -21 36 -30 44 -10 7 -17 20 -17 29 0 8 -20 35 -45 60 -25
24 -45 50 -45 56 0 13 -151 166 -163 166 -5 0 -30 18 -56 40 -26 22 -52 40
-57 40 -5 0 -24 14 -42 30 -18 17 -39 30 -46 30 -8 0 -19 7 -26 15 -7 8 -17
15 -22 15 -6 0 -32 11 -60 25 -27 14 -54 25 -60 25 -5 0 -16 7 -24 15 -9 8
-28 15 -43 15 -16 0 -34 7 -41 15 -7 8 -23 15 -36 15 -13 0 -38 7 -56 15 -18
8 -59 19 -90 25 -32 6 -60 16 -63 21 -4 5 -43 9 -88 9 -56 1 -88 5 -101 15
-17 13 -160 15 -1051 15 -568 0 -1035 -3 -1038 -7z"/>
<path d="M27552 20448 c-7 -7 -12 -36 -12 -65 0 -42 4 -55 18 -59 9 -3 30 -12
45 -20 16 -7 42 -14 57 -14 16 0 51 -13 77 -28 26 -16 56 -31 66 -35 9 -3 17
-12 17 -20 0 -7 11 -24 25 -37 14 -13 35 -44 47 -69 l23 -46 0 -1475 0 -1475
-27 -57 c-31 -66 -94 -133 -143 -154 -19 -7 -36 -18 -40 -24 -3 -5 -24 -10
-46 -10 -21 0 -49 -5 -62 -12 -12 -6 -29 -14 -37 -18 -19 -9 -27 -125 -9 -146
10 -12 125 -14 745 -14 l733 0 6 33 c19 102 -12 146 -114 158 -34 4 -67 14
-76 23 -9 9 -22 16 -29 16 -15 0 -96 82 -96 97 0 6 -6 16 -14 22 -8 7 -18 27
-22 44 -3 18 -11 38 -18 46 -8 10 -12 174 -14 569 -3 468 -1 557 11 571 8 9
17 28 21 44 6 26 38 67 53 67 3 0 15 8 26 18 18 16 68 17 705 20 777 3 722 -4
722 83 0 83 33 79 -701 79 -435 0 -655 4 -691 11 -58 13 -118 62 -118 97 0 11
-7 25 -15 32 -22 19 -23 1306 0 1336 8 10 15 31 15 45 0 15 7 32 15 39 8 7 15
18 15 24 0 14 79 90 130 126 l35 25 795 0 c741 0 797 -1 820 -17 13 -10 31
-18 40 -18 19 0 74 -27 117 -58 17 -12 35 -22 40 -22 16 0 183 -176 183 -193
0 -9 4 -18 9 -22 17 -10 71 -134 71 -161 0 -14 6 -35 13 -47 6 -12 14 -62 17
-112 l5 -90 70 0 70 0 3 35 c2 19 8 39 13 44 13 14 12 623 -1 631 -5 3 -10 19
-10 35 0 57 -54 140 -91 140 -10 0 -21 5 -24 10 -10 16 -3447 14 -3463 -2z"/>
<path d="M31828 20438 c-29 -36 -23 -76 18 -114 31 -30 42 -34 88 -34 35 0 58
-5 66 -15 7 -8 18 -15 24 -15 22 0 112 -89 133 -131 12 -24 27 -68 32 -97 16
-76 15 -2797 0 -2895 -6 -40 -20 -89 -31 -111 -21 -41 -115 -136 -134 -136 -6
0 -17 -7 -24 -15 -8 -9 -29 -15 -56 -15 -23 0 -46 -4 -49 -10 -3 -5 -14 -10
-24 -10 -27 0 -61 -42 -61 -77 0 -16 7 -44 16 -61 l15 -32 729 0 728 0 11 31
c16 47 14 104 -5 120 -23 19 -84 39 -121 39 -17 0 -38 7 -47 15 -8 8 -21 15
-29 15 -17 0 -127 115 -127 132 0 6 -8 20 -17 31 -17 18 -18 106 -21 1510 -2
1268 0 1492 12 1506 7 9 17 30 20 47 7 33 99 127 153 157 17 9 51 17 75 17 30
0 55 8 81 25 32 23 37 31 37 66 0 22 -5 49 -10 60 -10 19 -29 19 -738 19
l-727 0 -17 -22z"/>
<path d="M34057 20442 c-20 -22 -22 -80 -4 -102 26 -33 62 -50 108 -50 31 0
55 -7 72 -20 14 -11 29 -20 34 -20 14 0 113 -104 113 -120 0 -7 8 -22 18 -33
16 -18 17 -105 17 -1522 0 -1417 -1 -1504 -17 -1522 -10 -11 -18 -25 -18 -32
0 -18 -110 -131 -127 -131 -8 0 -21 -7 -29 -15 -9 -8 -32 -15 -52 -15 -20 -1
-57 -11 -82 -23 -40 -20 -45 -26 -48 -61 -2 -21 4 -53 13 -72 l16 -34 1584 0
c1556 0 1584 0 1595 19 5 11 10 45 10 75 0 44 -4 57 -19 66 -13 7 -311 10
-895 10 -572 0 -877 3 -881 10 -3 6 -26 10 -49 10 -27 0 -48 6 -56 15 -7 8
-18 15 -24 15 -19 0 -112 96 -137 142 -24 43 -24 44 -29 488 -3 245 -5 918 -5
1495 l0 1050 28 50 c38 66 60 90 130 136 48 32 67 39 107 39 92 0 150 83 104
148 l-15 22 -723 0 c-688 0 -724 -1 -739 -18z"/>
<path d="M37527 20453 c-4 -3 -7 -32 -7 -64 0 -50 3 -60 26 -78 19 -15 41 -21
74 -21 32 0 55 -6 73 -20 14 -11 29 -20 34 -20 18 0 121 -116 128 -145 3 -16
12 -33 18 -37 9 -6 13 -413 15 -1670 3 -1893 -6 -1728 87 -1728 94 0 85 -166
85 1543 0 1690 -6 1557 70 1557 50 0 72 -23 95 -98 10 -31 29 -77 42 -101 13
-24 23 -48 23 -53 0 -5 9 -28 19 -51 11 -24 23 -55 26 -69 4 -15 13 -32 21
-39 8 -6 14 -24 14 -39 0 -15 7 -33 15 -40 8 -7 15 -24 15 -39 0 -14 7 -35 15
-45 8 -11 15 -29 15 -41 0 -11 6 -29 13 -40 21 -32 67 -145 67 -164 0 -10 7
-24 15 -31 8 -7 15 -20 15 -30 0 -10 7 -23 15 -30 8 -7 15 -23 15 -35 0 -13 6
-36 14 -52 31 -59 56 -123 56 -141 0 -10 8 -29 17 -42 10 -14 19 -36 21 -50 2
-14 10 -32 18 -41 8 -8 14 -24 14 -34 0 -10 11 -41 24 -69 13 -28 32 -75 41
-104 10 -29 21 -55 26 -58 5 -3 9 -13 9 -23 0 -10 7 -24 15 -31 8 -7 15 -21
15 -32 0 -18 16 -58 61 -154 10 -22 19 -50 19 -61 0 -11 7 -26 15 -33 8 -7 15
-22 15 -34 0 -12 7 -31 15 -42 8 -10 15 -31 15 -45 0 -15 7 -32 15 -39 8 -7
15 -19 15 -27 0 -8 9 -33 20 -55 11 -23 20 -46 20 -52 0 -10 31 -82 56 -128 8
-14 14 -33 14 -41 0 -9 7 -28 15 -44 33 -65 55 -121 55 -140 0 -12 7 -28 15
-37 8 -8 15 -21 15 -28 0 -7 9 -30 20 -51 11 -20 20 -44 20 -53 0 -15 36 -102
60 -146 6 -10 10 -26 10 -36 0 -10 7 -27 15 -38 8 -10 15 -26 15 -35 0 -9 7
-22 15 -29 8 -7 15 -22 15 -34 0 -12 11 -38 25 -59 25 -36 27 -37 89 -37 72 0
83 8 111 83 10 26 22 50 26 53 5 3 9 18 9 33 0 16 7 34 15 41 8 7 15 20 15 29
0 9 7 25 15 35 8 11 15 29 15 40 0 12 7 30 15 40 8 11 15 28 15 39 0 17 31 91
66 159 8 14 14 34 14 45 0 10 7 27 15 37 8 11 15 26 15 34 0 14 37 102 60 144
6 10 10 25 10 34 0 9 6 28 14 42 29 55 56 119 56 135 0 9 4 18 9 22 5 3 13 20
16 38 4 17 16 50 26 71 11 22 19 45 19 52 0 6 7 17 15 24 8 7 15 25 15 40 0
15 7 33 15 40 8 7 15 22 15 33 0 19 34 100 65 159 8 14 15 37 15 50 0 12 7 32
15 42 8 11 15 30 15 42 0 12 7 27 15 34 8 7 15 20 15 29 0 9 7 25 15 35 8 11
15 28 15 38 0 10 4 26 9 36 5 9 14 31 21 47 7 17 19 44 26 60 35 80 54 129 54
140 0 8 7 26 15 42 33 65 55 121 55 140 0 11 7 26 15 33 8 7 15 25 15 40 0 15
7 33 15 40 8 7 15 20 15 29 0 9 4 21 9 26 5 6 18 35 29 65 38 105 49 131 60
142 7 7 12 24 12 39 0 15 7 32 15 39 8 7 15 22 15 34 0 17 24 75 61 148 5 10
9 23 9 30 1 7 9 31 20 53 11 22 19 49 20 61 0 11 15 34 33 52 40 39 93 44 122
12 18 -20 19 -67 16 -1308 -1 -830 -6 -1301 -12 -1327 -25 -99 -94 -191 -164
-221 -19 -7 -36 -18 -40 -24 -3 -5 -26 -10 -50 -10 -24 0 -46 -4 -50 -9 -3 -5
-19 -12 -35 -16 -30 -7 -30 -7 -30 -75 0 -45 5 -71 14 -79 9 -8 212 -10 742
-9 l729 3 9 47 c14 70 -3 102 -64 122 -27 9 -62 16 -79 16 -16 0 -33 5 -36 11
-4 6 -15 13 -25 17 -26 10 -120 101 -120 116 0 8 -7 19 -15 26 -8 7 -15 24
-15 39 0 15 -6 33 -12 39 -10 10 -14 319 -16 1463 -2 1281 -1 1453 13 1472 8
12 15 33 15 48 0 15 7 32 15 39 8 7 15 18 15 25 0 16 97 105 115 105 7 0 18 7
25 15 8 9 30 15 59 15 33 0 57 7 84 25 34 24 37 30 37 73 0 27 -5 53 -12 60
-9 9 -133 12 -498 12 -522 0 -502 2 -577 -51 -31 -22 -93 -101 -93 -119 0 -8
-9 -32 -20 -53 -11 -20 -20 -43 -20 -50 0 -7 -9 -32 -20 -55 -11 -22 -20 -47
-20 -55 0 -8 -7 -20 -15 -27 -8 -7 -15 -25 -15 -40 0 -15 -7 -33 -15 -40 -8
-7 -15 -18 -15 -25 0 -8 -6 -26 -14 -42 -8 -15 -27 -59 -42 -98 -16 -38 -34
-79 -41 -90 -7 -11 -13 -31 -13 -46 0 -15 -7 -32 -15 -39 -8 -7 -15 -25 -15
-40 0 -15 -7 -33 -15 -40 -8 -7 -15 -22 -15 -34 0 -11 -11 -43 -24 -71 -36
-75 -56 -122 -56 -132 0 -4 -14 -35 -30 -68 -16 -33 -30 -66 -30 -73 0 -7 -9
-31 -20 -54 -11 -23 -23 -56 -26 -75 -3 -18 -10 -36 -15 -39 -5 -3 -9 -12 -9
-21 0 -9 -6 -24 -14 -32 -8 -9 -16 -27 -18 -41 -2 -14 -11 -36 -21 -50 -9 -13
-17 -32 -17 -40 0 -9 -9 -35 -20 -58 -11 -22 -20 -47 -20 -55 0 -8 -7 -20 -15
-27 -8 -7 -15 -22 -15 -34 0 -11 -13 -48 -28 -81 -38 -79 -71 -162 -84 -205
-5 -19 -14 -39 -19 -44 -5 -6 -9 -18 -9 -27 0 -9 -7 -22 -15 -29 -8 -7 -15
-24 -15 -39 0 -14 -7 -35 -15 -45 -8 -11 -15 -29 -15 -41 0 -12 -4 -25 -9 -30
-13 -15 -71 -157 -71 -176 0 -9 -7 -22 -15 -29 -8 -7 -15 -25 -15 -40 0 -15
-7 -33 -15 -40 -8 -7 -15 -18 -15 -25 0 -26 -36 -45 -86 -45 -27 0 -54 4 -60
8 -18 12 -84 143 -84 167 0 13 -7 28 -15 35 -8 7 -15 19 -15 27 0 8 -11 37
-25 65 -14 27 -25 58 -25 68 0 9 -7 23 -15 30 -8 7 -15 25 -15 41 0 15 -4 30
-9 33 -4 3 -30 63 -56 133 -26 71 -51 135 -56 143 -5 8 -12 22 -15 30 -3 8
-12 29 -20 47 -8 17 -14 35 -14 40 0 5 -9 28 -20 51 -11 22 -20 47 -20 55 0 8
-7 20 -15 27 -8 7 -15 25 -15 40 0 15 -6 33 -14 39 -8 7 -17 28 -21 49 -4 20
-10 39 -13 42 -10 7 -53 110 -62 149 -5 18 -13 38 -19 44 -6 6 -11 18 -11 27
0 8 -7 28 -15 44 -8 15 -15 34 -15 41 0 7 -7 18 -15 25 -8 7 -15 22 -15 33 0
19 -34 100 -65 159 -8 14 -15 37 -15 51 0 13 -7 30 -15 37 -8 7 -15 21 -15 32
0 11 -6 32 -14 46 -34 67 -96 222 -96 243 0 9 -7 22 -15 29 -8 7 -15 20 -15
29 0 9 -4 21 -9 27 -4 5 -16 34 -26 64 -9 30 -28 78 -41 106 -13 28 -24 56
-24 63 0 6 -9 28 -20 48 -11 21 -20 42 -20 48 0 42 -98 165 -131 165 -9 0 -22
7 -29 15 -11 13 -80 15 -515 15 -276 0 -505 -3 -508 -7z"/>
</g>
</svg>
