<?xml version="1.0" encoding="UTF-8"?>
<svg xmlns="http://www.w3.org/2000/svg" xmlns:xlink="http://www.w3.org/1999/xlink" width="118px" height="36px" viewBox="0 0 118 36" version="1.1">
<g id="surface1">
<path style=" stroke:none;fill-rule:nonzero;fill:rgb(0%,0%,0%);fill-opacity:1;" d="M 37.757812 10.027344 C 37.707031 10.050781 37.597656 10.117188 37.523438 10.171875 C 37.5 10.1875 37.46875 10.210938 37.453125 10.222656 C 37.429688 10.238281 37.425781 10.691406 37.425781 13.160156 C 37.425781 15.835938 37.425781 16.082031 37.457031 16.117188 C 37.476562 16.140625 37.515625 16.171875 37.546875 16.1875 C 37.628906 16.234375 37.796875 16.296875 37.875 16.3125 C 38.011719 16.339844 38.074219 16.351562 38.226562 16.375 C 38.3125 16.390625 38.417969 16.410156 38.46875 16.421875 C 38.515625 16.433594 38.597656 16.445312 38.644531 16.453125 C 38.734375 16.464844 38.757812 16.46875 38.890625 16.496094 C 38.933594 16.503906 39.019531 16.519531 39.078125 16.527344 C 39.136719 16.539062 39.222656 16.554688 39.269531 16.5625 C 39.3125 16.574219 39.363281 16.582031 39.378906 16.582031 C 39.394531 16.582031 39.414062 16.582031 39.421875 16.585938 C 39.425781 16.589844 39.472656 16.597656 39.519531 16.605469 C 39.570312 16.613281 39.628906 16.625 39.652344 16.632812 C 39.675781 16.640625 39.703125 16.644531 39.71875 16.644531 C 39.75 16.644531 39.902344 16.671875 40.042969 16.699219 C 40.070312 16.707031 40.144531 16.71875 40.207031 16.730469 C 40.273438 16.742188 40.371094 16.757812 40.425781 16.765625 C 40.480469 16.777344 40.542969 16.789062 40.574219 16.789062 C 40.601562 16.792969 40.667969 16.804688 40.722656 16.816406 C 40.777344 16.828125 40.871094 16.84375 40.929688 16.855469 C 40.988281 16.863281 41.074219 16.878906 41.125 16.890625 C 41.175781 16.902344 41.222656 16.910156 41.234375 16.910156 C 41.242188 16.910156 41.261719 16.914062 41.277344 16.917969 C 41.296875 16.921875 41.339844 16.929688 41.378906 16.933594 C 41.417969 16.9375 41.464844 16.945312 41.484375 16.953125 C 41.515625 16.960938 41.679688 16.988281 42.0625 17.054688 C 42.160156 17.070312 42.246094 17.085938 42.253906 17.089844 C 42.257812 17.09375 42.332031 17.105469 42.417969 17.117188 C 42.5 17.128906 42.585938 17.144531 42.605469 17.148438 C 42.640625 17.160156 42.765625 17.179688 43.148438 17.246094 C 43.25 17.265625 43.371094 17.285156 43.421875 17.296875 C 43.472656 17.304688 43.539062 17.316406 43.570312 17.320312 C 43.605469 17.328125 43.667969 17.339844 43.71875 17.347656 C 43.769531 17.359375 43.828125 17.367188 43.855469 17.371094 C 43.878906 17.375 43.925781 17.382812 43.953125 17.390625 C 43.988281 17.398438 44.019531 17.402344 44.035156 17.402344 C 44.046875 17.402344 44.085938 17.410156 44.117188 17.417969 C 44.183594 17.433594 44.292969 17.453125 44.410156 17.46875 C 44.449219 17.476562 44.488281 17.484375 44.496094 17.488281 C 44.503906 17.492188 44.546875 17.5 44.59375 17.503906 C 44.691406 17.519531 44.839844 17.542969 44.882812 17.554688 C 44.898438 17.5625 44.921875 17.5625 44.929688 17.5625 C 44.941406 17.5625 45.039062 17.582031 45.144531 17.601562 C 45.253906 17.621094 45.398438 17.648438 45.46875 17.660156 C 45.539062 17.671875 45.644531 17.6875 45.699219 17.699219 C 45.910156 17.738281 46.03125 17.757812 46.128906 17.773438 C 46.265625 17.796875 46.507812 17.839844 46.523438 17.847656 C 46.53125 17.851562 46.550781 17.851562 46.566406 17.851562 C 46.585938 17.851562 46.636719 17.859375 46.679688 17.871094 C 46.722656 17.878906 46.800781 17.894531 46.855469 17.902344 C 46.964844 17.917969 46.992188 17.925781 47.117188 17.949219 C 47.160156 17.957031 47.203125 17.964844 47.210938 17.964844 C 47.222656 17.964844 47.382812 17.992188 47.492188 18.015625 C 47.519531 18.019531 47.582031 18.03125 47.632812 18.039062 C 47.683594 18.046875 47.765625 18.0625 47.824219 18.074219 C 47.878906 18.082031 47.96875 18.097656 48.019531 18.105469 C 48.121094 18.125 48.164062 18.132812 48.242188 18.144531 C 48.269531 18.152344 48.332031 18.164062 48.378906 18.171875 C 48.429688 18.179688 48.515625 18.191406 48.566406 18.203125 C 48.621094 18.214844 48.699219 18.230469 48.742188 18.234375 C 48.839844 18.25 48.84375 18.253906 49.03125 18.285156 C 49.113281 18.300781 49.1875 18.3125 49.199219 18.3125 C 49.210938 18.3125 49.285156 18.328125 49.367188 18.34375 C 49.445312 18.359375 49.546875 18.375 49.589844 18.382812 C 49.632812 18.390625 49.6875 18.398438 49.707031 18.40625 C 49.730469 18.410156 49.785156 18.421875 49.835938 18.429688 C 50.015625 18.457031 50.074219 18.488281 49.996094 18.507812 C 49.976562 18.511719 49.90625 18.527344 49.84375 18.535156 C 49.78125 18.546875 49.714844 18.558594 49.699219 18.5625 C 49.679688 18.566406 49.605469 18.582031 49.53125 18.59375 C 49.453125 18.605469 49.347656 18.625 49.289062 18.636719 C 49.234375 18.648438 49.175781 18.65625 49.160156 18.65625 C 49.144531 18.65625 49.121094 18.660156 49.109375 18.664062 C 49.09375 18.671875 49.074219 18.675781 49.058594 18.675781 C 49.042969 18.675781 49.023438 18.679688 49.007812 18.683594 C 48.980469 18.695312 48.832031 18.71875 48.765625 18.726562 C 48.742188 18.726562 48.675781 18.738281 48.617188 18.75 C 48.558594 18.765625 48.453125 18.78125 48.386719 18.792969 C 48.234375 18.820312 48.054688 18.851562 47.808594 18.894531 C 47.707031 18.914062 47.585938 18.933594 47.542969 18.941406 C 47.5 18.949219 47.425781 18.960938 47.378906 18.972656 C 47.332031 18.980469 47.277344 18.988281 47.253906 18.992188 C 47.207031 19 47.171875 19.003906 47.070312 19.027344 C 47.039062 19.03125 46.996094 19.039062 46.972656 19.042969 C 46.789062 19.074219 46.703125 19.089844 46.617188 19.105469 C 46.5625 19.117188 46.511719 19.125 46.503906 19.125 C 46.5 19.125 46.417969 19.140625 46.324219 19.15625 C 46.226562 19.175781 46.140625 19.191406 46.132812 19.191406 C 46.121094 19.191406 46.058594 19.203125 45.988281 19.214844 C 45.917969 19.226562 45.8125 19.246094 45.75 19.257812 C 45.6875 19.265625 45.617188 19.28125 45.59375 19.289062 C 45.574219 19.292969 45.542969 19.296875 45.53125 19.296875 C 45.515625 19.296875 45.464844 19.304688 45.417969 19.316406 C 45.367188 19.328125 45.320312 19.335938 45.3125 19.335938 C 45.300781 19.335938 45.269531 19.339844 45.238281 19.347656 C 45.210938 19.355469 45.148438 19.367188 45.097656 19.371094 C 45.054688 19.378906 45.007812 19.386719 44.996094 19.394531 C 44.984375 19.398438 44.960938 19.402344 44.945312 19.402344 C 44.929688 19.402344 44.886719 19.40625 44.855469 19.414062 C 44.820312 19.421875 44.722656 19.441406 44.644531 19.453125 C 44.5625 19.464844 44.460938 19.484375 44.417969 19.492188 C 44.378906 19.5 44.328125 19.511719 44.304688 19.511719 C 44.28125 19.515625 44.242188 19.519531 44.21875 19.527344 C 44.199219 19.53125 44.101562 19.550781 44.007812 19.566406 C 43.910156 19.578125 43.816406 19.59375 43.800781 19.601562 C 43.765625 19.609375 43.617188 19.636719 43.484375 19.65625 C 43.433594 19.664062 43.367188 19.675781 43.335938 19.683594 C 43.304688 19.6875 43.222656 19.703125 43.160156 19.710938 C 43.09375 19.722656 43.03125 19.734375 43.011719 19.738281 C 42.996094 19.742188 42.9375 19.753906 42.886719 19.761719 C 42.707031 19.789062 42.6875 19.792969 42.648438 19.804688 C 42.625 19.808594 42.527344 19.828125 42.429688 19.839844 C 42.332031 19.855469 42.234375 19.875 42.214844 19.878906 C 42.191406 19.886719 42.148438 19.894531 42.117188 19.898438 C 42.085938 19.90625 41.984375 19.921875 41.890625 19.9375 C 41.796875 19.953125 41.671875 19.972656 41.613281 19.984375 C 41.554688 19.992188 41.480469 20.007812 41.449219 20.015625 C 41.417969 20.023438 41.347656 20.03125 41.300781 20.039062 C 41.25 20.046875 41.148438 20.0625 41.070312 20.078125 C 40.996094 20.09375 40.921875 20.109375 40.910156 20.109375 C 40.898438 20.109375 40.84375 20.117188 40.792969 20.128906 C 40.738281 20.140625 40.679688 20.152344 40.65625 20.152344 C 40.632812 20.15625 40.605469 20.160156 40.59375 20.164062 C 40.578125 20.171875 40.550781 20.175781 40.53125 20.175781 C 40.511719 20.175781 40.484375 20.179688 40.46875 20.183594 C 40.425781 20.195312 40.320312 20.214844 40.304688 20.214844 C 40.296875 20.214844 40.214844 20.230469 40.128906 20.246094 C 40.042969 20.261719 39.9375 20.28125 39.894531 20.289062 C 39.851562 20.292969 39.773438 20.308594 39.722656 20.316406 C 39.671875 20.328125 39.546875 20.347656 39.449219 20.367188 C 39.347656 20.382812 39.160156 20.417969 39.027344 20.441406 C 38.898438 20.464844 38.746094 20.488281 38.691406 20.5 C 38.636719 20.507812 38.566406 20.519531 38.535156 20.527344 C 38.503906 20.535156 38.410156 20.550781 38.332031 20.5625 C 38.25 20.574219 38.144531 20.59375 38.09375 20.605469 C 38.046875 20.613281 37.96875 20.628906 37.921875 20.640625 C 37.847656 20.652344 37.605469 20.734375 37.585938 20.753906 C 37.582031 20.757812 37.554688 20.769531 37.53125 20.777344 C 37.507812 20.789062 37.484375 20.800781 37.484375 20.804688 C 37.484375 20.808594 37.46875 20.828125 37.445312 20.847656 C 37.40625 20.886719 37.40625 20.898438 37.410156 21.695312 C 37.414062 22.238281 37.421875 22.515625 37.4375 22.53125 C 37.472656 22.570312 37.585938 22.636719 37.707031 22.679688 C 37.820312 22.722656 37.839844 22.730469 38.019531 22.757812 C 38.070312 22.765625 38.125 22.773438 38.136719 22.777344 C 38.1875 22.789062 38.363281 22.800781 38.535156 22.800781 C 38.753906 22.800781 38.808594 22.796875 38.980469 22.769531 C 39.054688 22.757812 39.121094 22.75 39.128906 22.75 C 39.132812 22.75 39.164062 22.746094 39.191406 22.738281 C 39.222656 22.730469 39.292969 22.71875 39.351562 22.707031 C 39.464844 22.691406 39.8125 22.628906 40.199219 22.558594 C 40.324219 22.539062 40.472656 22.511719 40.53125 22.5 C 40.59375 22.492188 40.703125 22.472656 40.78125 22.457031 C 40.859375 22.441406 40.925781 22.429688 40.933594 22.429688 C 40.941406 22.429688 41.003906 22.421875 41.070312 22.40625 C 41.136719 22.394531 41.210938 22.382812 41.230469 22.378906 C 41.253906 22.375 41.308594 22.367188 41.355469 22.359375 C 41.402344 22.351562 41.46875 22.339844 41.496094 22.332031 C 41.527344 22.324219 41.621094 22.308594 41.703125 22.296875 C 41.78125 22.285156 41.851562 22.273438 41.859375 22.269531 C 41.867188 22.265625 41.921875 22.253906 41.984375 22.246094 C 42.046875 22.238281 42.160156 22.21875 42.234375 22.203125 C 42.375 22.175781 42.539062 22.148438 42.769531 22.109375 C 42.832031 22.101562 42.9375 22.082031 43 22.070312 C 43.0625 22.054688 43.132812 22.042969 43.15625 22.039062 C 43.179688 22.039062 43.210938 22.03125 43.226562 22.027344 C 43.308594 22.011719 43.523438 21.976562 43.535156 21.976562 C 43.542969 21.976562 43.902344 21.910156 44.085938 21.875 C 44.132812 21.867188 44.226562 21.851562 44.300781 21.839844 C 44.375 21.828125 44.457031 21.8125 44.484375 21.808594 C 44.511719 21.800781 44.601562 21.785156 44.679688 21.773438 C 44.753906 21.761719 44.828125 21.75 44.832031 21.746094 C 44.839844 21.742188 44.914062 21.730469 45.003906 21.714844 C 45.089844 21.703125 45.199219 21.683594 45.246094 21.675781 C 45.289062 21.664062 45.375 21.648438 45.441406 21.640625 C 45.503906 21.628906 45.585938 21.613281 45.617188 21.609375 C 45.648438 21.601562 45.703125 21.59375 45.734375 21.585938 C 45.769531 21.582031 45.835938 21.570312 45.882812 21.5625 C 45.933594 21.554688 46.054688 21.53125 46.148438 21.515625 C 46.246094 21.5 46.328125 21.484375 46.335938 21.484375 C 46.339844 21.480469 46.425781 21.464844 46.523438 21.449219 C 46.675781 21.421875 46.835938 21.394531 47.121094 21.34375 C 47.160156 21.335938 47.226562 21.328125 47.269531 21.320312 C 47.3125 21.3125 47.398438 21.296875 47.457031 21.285156 C 47.515625 21.273438 47.621094 21.253906 47.691406 21.242188 C 47.992188 21.195312 48.117188 21.171875 48.253906 21.144531 C 48.332031 21.128906 48.414062 21.117188 48.4375 21.113281 C 48.464844 21.113281 48.527344 21.101562 48.574219 21.089844 C 48.625 21.078125 48.710938 21.066406 48.761719 21.058594 C 48.820312 21.050781 48.890625 21.035156 48.925781 21.027344 C 48.957031 21.019531 48.992188 21.015625 49 21.015625 C 49.007812 21.015625 49.042969 21.007812 49.082031 21 C 49.117188 20.992188 49.15625 20.984375 49.171875 20.984375 C 49.183594 20.984375 49.230469 20.976562 49.273438 20.964844 C 49.316406 20.957031 49.410156 20.941406 49.480469 20.929688 C 49.550781 20.917969 49.648438 20.902344 49.699219 20.890625 C 49.746094 20.882812 49.824219 20.867188 49.875 20.859375 C 49.925781 20.851562 49.976562 20.84375 49.992188 20.839844 C 50.101562 20.820312 50.289062 20.785156 50.296875 20.785156 C 50.300781 20.785156 50.386719 20.773438 50.484375 20.753906 C 50.585938 20.734375 50.675781 20.722656 50.683594 20.722656 C 50.699219 20.722656 50.816406 20.699219 50.839844 20.691406 C 50.859375 20.683594 51.03125 20.65625 51.054688 20.65625 C 51.070312 20.65625 51.113281 20.648438 51.152344 20.636719 C 51.191406 20.628906 51.292969 20.609375 51.378906 20.59375 C 51.464844 20.582031 51.550781 20.566406 51.566406 20.5625 C 51.582031 20.558594 51.664062 20.546875 51.742188 20.53125 C 51.824219 20.519531 51.902344 20.507812 51.921875 20.5 C 51.949219 20.492188 52.03125 20.480469 52.222656 20.449219 C 52.261719 20.445312 52.347656 20.429688 52.414062 20.414062 C 52.480469 20.402344 52.554688 20.390625 52.574219 20.386719 C 52.597656 20.382812 52.660156 20.375 52.710938 20.363281 C 52.761719 20.351562 52.84375 20.339844 52.898438 20.332031 C 52.949219 20.324219 53.007812 20.3125 53.03125 20.304688 C 53.054688 20.300781 53.148438 20.285156 53.246094 20.269531 C 53.34375 20.253906 53.4375 20.238281 53.453125 20.230469 C 53.46875 20.226562 53.546875 20.214844 53.625 20.203125 C 53.703125 20.191406 53.773438 20.175781 53.78125 20.175781 C 53.785156 20.171875 53.835938 20.160156 53.890625 20.152344 C 54.097656 20.121094 54.152344 20.113281 54.183594 20.105469 C 54.203125 20.101562 54.246094 20.089844 54.28125 20.085938 C 54.410156 20.0625 54.53125 20.042969 54.8125 19.992188 C 54.96875 19.964844 55.125 19.9375 55.15625 19.933594 C 55.1875 19.925781 55.25 19.914062 55.292969 19.90625 C 55.335938 19.898438 55.429688 19.886719 55.5 19.875 C 55.570312 19.863281 55.667969 19.847656 55.714844 19.835938 C 55.765625 19.824219 55.84375 19.808594 55.894531 19.804688 C 56.003906 19.789062 56.054688 19.777344 56.074219 19.769531 C 56.082031 19.765625 56.109375 19.761719 56.128906 19.761719 C 56.148438 19.761719 56.171875 19.757812 56.175781 19.753906 C 56.183594 19.753906 56.226562 19.746094 56.269531 19.738281 C 56.316406 19.730469 56.421875 19.710938 56.503906 19.695312 C 56.777344 19.648438 56.886719 19.636719 56.964844 19.65625 C 56.984375 19.660156 57.015625 19.664062 57.03125 19.664062 C 57.046875 19.664062 57.085938 19.671875 57.121094 19.679688 C 57.152344 19.6875 57.246094 19.703125 57.328125 19.714844 C 57.410156 19.730469 57.492188 19.742188 57.515625 19.75 C 57.535156 19.753906 57.632812 19.773438 57.730469 19.785156 C 57.828125 19.800781 57.921875 19.820312 57.9375 19.824219 C 57.953125 19.828125 58.019531 19.839844 58.085938 19.847656 C 58.152344 19.855469 58.242188 19.875 58.292969 19.882812 C 58.339844 19.894531 58.4375 19.910156 58.507812 19.921875 C 58.574219 19.933594 58.644531 19.945312 58.664062 19.949219 C 58.679688 19.953125 58.753906 19.964844 58.820312 19.976562 C 58.890625 19.984375 58.984375 20.003906 59.035156 20.011719 C 59.082031 20.023438 59.167969 20.039062 59.222656 20.046875 C 59.277344 20.054688 59.351562 20.066406 59.382812 20.074219 C 59.417969 20.082031 59.476562 20.09375 59.519531 20.101562 C 59.5625 20.105469 59.664062 20.125 59.746094 20.140625 C 59.945312 20.175781 59.960938 20.175781 60.0625 20.191406 C 60.109375 20.199219 60.179688 20.210938 60.210938 20.21875 C 60.242188 20.226562 60.28125 20.234375 60.296875 20.238281 C 60.3125 20.238281 60.378906 20.25 60.445312 20.261719 C 60.511719 20.273438 60.609375 20.289062 60.660156 20.296875 C 60.773438 20.316406 60.910156 20.339844 61.007812 20.359375 C 61.042969 20.367188 61.082031 20.371094 61.089844 20.371094 C 61.101562 20.371094 61.167969 20.382812 61.242188 20.398438 C 61.320312 20.414062 61.410156 20.429688 61.445312 20.4375 C 61.519531 20.445312 61.644531 20.46875 61.722656 20.484375 C 61.757812 20.492188 61.816406 20.5 61.863281 20.507812 C 61.90625 20.515625 61.964844 20.523438 61.992188 20.53125 C 62.019531 20.535156 62.113281 20.550781 62.199219 20.566406 C 62.285156 20.578125 62.382812 20.597656 62.421875 20.605469 C 62.460938 20.613281 62.523438 20.625 62.558594 20.628906 C 62.597656 20.636719 62.667969 20.648438 62.722656 20.660156 C 62.773438 20.667969 62.828125 20.679688 62.84375 20.679688 C 62.859375 20.679688 62.878906 20.683594 62.886719 20.683594 C 62.890625 20.6875 62.925781 20.695312 62.960938 20.699219 C 62.996094 20.707031 63.0625 20.71875 63.109375 20.726562 C 63.160156 20.738281 63.25 20.753906 63.316406 20.761719 C 63.382812 20.769531 63.480469 20.789062 63.539062 20.800781 C 63.59375 20.8125 63.648438 20.824219 63.65625 20.824219 C 63.667969 20.824219 63.746094 20.835938 63.839844 20.851562 C 63.929688 20.867188 64.003906 20.882812 64.007812 20.882812 C 64.007812 20.882812 64.089844 20.898438 64.1875 20.914062 C 64.28125 20.929688 64.417969 20.953125 64.488281 20.964844 C 64.554688 20.976562 64.625 20.988281 64.644531 20.992188 C 64.660156 20.996094 64.746094 21.011719 64.832031 21.027344 C 64.917969 21.042969 65.015625 21.058594 65.050781 21.066406 C 65.082031 21.074219 65.132812 21.082031 65.164062 21.085938 C 65.191406 21.085938 65.214844 21.089844 65.214844 21.09375 C 65.214844 21.09375 65.246094 21.097656 65.28125 21.105469 C 65.3125 21.105469 65.371094 21.117188 65.40625 21.128906 C 65.441406 21.136719 65.484375 21.148438 65.503906 21.148438 C 65.519531 21.148438 65.582031 21.15625 65.636719 21.167969 C 65.8125 21.199219 66.203125 21.265625 66.222656 21.265625 C 66.230469 21.265625 66.238281 21.269531 66.238281 21.273438 C 66.238281 21.273438 66.28125 21.28125 66.332031 21.289062 C 66.386719 21.296875 66.484375 21.3125 66.550781 21.328125 C 66.617188 21.339844 66.707031 21.355469 66.746094 21.359375 C 66.785156 21.367188 66.832031 21.375 66.847656 21.378906 C 66.863281 21.382812 66.945312 21.394531 67.027344 21.410156 C 67.109375 21.421875 67.214844 21.441406 67.261719 21.449219 C 67.308594 21.460938 67.40625 21.476562 67.476562 21.488281 C 67.546875 21.5 67.617188 21.511719 67.632812 21.515625 C 67.648438 21.519531 67.730469 21.535156 67.816406 21.546875 C 67.898438 21.5625 68.003906 21.582031 68.050781 21.589844 C 68.101562 21.601562 68.15625 21.609375 68.171875 21.609375 C 68.1875 21.609375 68.210938 21.613281 68.222656 21.617188 C 68.238281 21.621094 68.257812 21.625 68.265625 21.625 C 68.277344 21.625 68.320312 21.632812 68.367188 21.644531 C 68.414062 21.652344 68.507812 21.671875 68.578125 21.683594 C 68.648438 21.695312 68.75 21.710938 68.800781 21.71875 C 68.851562 21.730469 68.941406 21.746094 69 21.757812 C 69.359375 21.816406 69.460938 21.832031 69.523438 21.847656 C 69.558594 21.855469 69.640625 21.867188 69.703125 21.878906 C 69.765625 21.886719 69.839844 21.902344 69.871094 21.90625 C 69.898438 21.914062 69.980469 21.925781 70.046875 21.9375 C 70.117188 21.949219 70.210938 21.964844 70.253906 21.972656 C 70.332031 21.992188 70.5625 22.03125 70.800781 22.070312 C 70.863281 22.078125 70.945312 22.09375 70.984375 22.101562 C 71.023438 22.113281 71.074219 22.121094 71.097656 22.125 C 71.125 22.128906 71.15625 22.132812 71.171875 22.136719 C 71.1875 22.140625 71.234375 22.144531 71.273438 22.152344 C 71.308594 22.15625 71.367188 22.167969 71.394531 22.175781 C 71.425781 22.183594 71.46875 22.191406 71.488281 22.191406 C 71.507812 22.191406 71.542969 22.195312 71.570312 22.203125 C 71.628906 22.214844 71.796875 22.246094 72.058594 22.289062 C 72.09375 22.292969 72.136719 22.300781 72.15625 22.308594 C 72.1875 22.316406 72.238281 22.324219 72.40625 22.347656 C 72.460938 22.359375 72.511719 22.367188 72.519531 22.371094 C 72.527344 22.375 72.585938 22.386719 72.660156 22.394531 C 72.726562 22.40625 72.828125 22.421875 72.882812 22.433594 C 72.941406 22.445312 72.996094 22.453125 73.003906 22.453125 C 73.027344 22.453125 73.261719 22.496094 73.308594 22.511719 C 73.332031 22.515625 73.359375 22.519531 73.371094 22.519531 C 73.390625 22.519531 73.671875 22.570312 73.691406 22.574219 C 73.695312 22.578125 73.773438 22.589844 73.859375 22.605469 C 73.945312 22.621094 74.023438 22.632812 74.03125 22.640625 C 74.039062 22.644531 74.058594 22.648438 74.074219 22.648438 C 74.109375 22.648438 74.304688 22.679688 74.390625 22.699219 C 74.421875 22.703125 74.535156 22.722656 74.644531 22.738281 L 74.839844 22.761719 L 75.089844 22.761719 C 75.320312 22.761719 75.34375 22.761719 75.421875 22.746094 C 75.472656 22.738281 75.53125 22.730469 75.558594 22.726562 C 75.640625 22.71875 75.820312 22.679688 75.890625 22.652344 C 75.925781 22.636719 75.980469 22.617188 76.007812 22.601562 C 76.042969 22.589844 76.09375 22.5625 76.121094 22.539062 L 76.179688 22.5 L 76.183594 21.667969 C 76.191406 20.757812 76.195312 20.808594 76.082031 20.738281 C 76.023438 20.703125 75.769531 20.613281 75.707031 20.605469 C 75.683594 20.605469 75.65625 20.597656 75.640625 20.59375 C 75.628906 20.589844 75.589844 20.582031 75.554688 20.574219 C 75.519531 20.570312 75.46875 20.5625 75.441406 20.554688 C 75.414062 20.546875 75.382812 20.539062 75.367188 20.539062 C 75.355469 20.539062 75.28125 20.527344 75.203125 20.515625 C 75.058594 20.484375 75.042969 20.484375 74.949219 20.46875 C 74.808594 20.445312 74.734375 20.433594 74.648438 20.414062 C 74.589844 20.40625 74.539062 20.398438 74.523438 20.398438 C 74.511719 20.398438 74.480469 20.390625 74.449219 20.382812 C 74.402344 20.371094 74.25 20.347656 74.132812 20.328125 C 74.101562 20.324219 74.050781 20.3125 74.015625 20.308594 C 73.984375 20.300781 73.882812 20.285156 73.796875 20.269531 C 73.703125 20.257812 73.632812 20.242188 73.632812 20.238281 C 73.632812 20.238281 73.589844 20.230469 73.542969 20.222656 C 73.492188 20.214844 73.402344 20.199219 73.347656 20.191406 C 73.253906 20.175781 73.058594 20.140625 72.664062 20.070312 C 72.570312 20.054688 72.488281 20.039062 72.480469 20.035156 C 72.472656 20.03125 72.457031 20.03125 72.441406 20.03125 C 72.425781 20.03125 72.386719 20.027344 72.359375 20.019531 C 72.277344 20.003906 71.941406 19.941406 71.863281 19.933594 C 71.78125 19.921875 71.6875 19.902344 71.574219 19.878906 C 71.527344 19.871094 71.480469 19.863281 71.464844 19.863281 C 71.453125 19.863281 71.414062 19.855469 71.382812 19.847656 C 71.328125 19.835938 71.25 19.824219 71.050781 19.792969 C 71.023438 19.789062 70.996094 19.78125 70.992188 19.777344 C 70.984375 19.773438 70.945312 19.765625 70.902344 19.761719 C 70.859375 19.757812 70.792969 19.746094 70.753906 19.738281 C 70.714844 19.730469 70.675781 19.726562 70.667969 19.726562 C 70.664062 19.726562 70.625 19.71875 70.589844 19.710938 C 70.554688 19.703125 70.488281 19.6875 70.441406 19.683594 C 70.394531 19.675781 70.339844 19.667969 70.320312 19.664062 C 70.1875 19.636719 70.070312 19.617188 70.003906 19.609375 C 69.960938 19.601562 69.921875 19.597656 69.914062 19.59375 C 69.910156 19.589844 69.839844 19.578125 69.753906 19.5625 C 69.671875 19.550781 69.578125 19.535156 69.550781 19.527344 C 69.519531 19.523438 69.414062 19.503906 69.316406 19.488281 C 69.21875 19.472656 69.125 19.457031 69.109375 19.449219 C 69.089844 19.445312 69.046875 19.4375 69.011719 19.433594 C 68.972656 19.429688 68.921875 19.421875 68.902344 19.417969 C 68.878906 19.414062 68.804688 19.398438 68.734375 19.386719 C 68.664062 19.375 68.59375 19.363281 68.578125 19.359375 C 68.5625 19.355469 68.511719 19.347656 68.46875 19.339844 C 68.425781 19.335938 68.363281 19.324219 68.324219 19.3125 C 68.285156 19.304688 68.246094 19.296875 68.238281 19.296875 C 68.230469 19.296875 68.152344 19.285156 68.0625 19.269531 C 67.976562 19.25 67.898438 19.238281 67.890625 19.238281 C 67.882812 19.238281 67.863281 19.234375 67.851562 19.230469 C 67.835938 19.226562 67.8125 19.21875 67.800781 19.21875 C 67.78125 19.21875 67.695312 19.207031 67.605469 19.1875 C 67.515625 19.167969 67.425781 19.15625 67.40625 19.15625 C 67.390625 19.15625 67.34375 19.148438 67.304688 19.136719 C 67.265625 19.128906 67.160156 19.109375 67.074219 19.09375 C 66.988281 19.082031 66.886719 19.0625 66.851562 19.054688 C 66.820312 19.046875 66.78125 19.039062 66.773438 19.039062 C 66.75 19.039062 66.515625 19 66.472656 18.988281 C 66.457031 18.984375 66.414062 18.976562 66.375 18.972656 C 66.296875 18.960938 66.152344 18.9375 66.140625 18.933594 C 66.132812 18.929688 66.054688 18.917969 65.960938 18.902344 C 65.871094 18.886719 65.757812 18.867188 65.71875 18.859375 C 65.675781 18.851562 65.632812 18.84375 65.625 18.84375 C 65.605469 18.84375 65.316406 18.789062 65.273438 18.777344 C 65.257812 18.773438 65.226562 18.769531 65.210938 18.769531 C 65.195312 18.769531 65.148438 18.761719 65.105469 18.753906 C 65.0625 18.742188 64.988281 18.730469 64.933594 18.722656 C 64.882812 18.714844 64.832031 18.707031 64.820312 18.699219 C 64.808594 18.695312 64.785156 18.691406 64.765625 18.691406 C 64.75 18.691406 64.710938 18.6875 64.675781 18.679688 C 64.640625 18.671875 64.546875 18.652344 64.46875 18.640625 C 64.386719 18.628906 64.300781 18.613281 64.28125 18.609375 C 64.257812 18.601562 64.199219 18.589844 64.152344 18.582031 C 63.992188 18.558594 63.886719 18.542969 63.878906 18.535156 C 63.871094 18.535156 63.828125 18.527344 63.777344 18.519531 C 63.667969 18.503906 63.636719 18.492188 63.644531 18.46875 C 63.652344 18.453125 63.667969 18.449219 63.75 18.433594 C 63.804688 18.425781 63.875 18.414062 63.90625 18.40625 C 63.9375 18.398438 63.96875 18.390625 63.980469 18.390625 C 63.988281 18.390625 64.050781 18.382812 64.121094 18.367188 C 64.191406 18.355469 64.253906 18.34375 64.269531 18.34375 C 64.28125 18.34375 64.289062 18.339844 64.289062 18.335938 C 64.289062 18.335938 64.328125 18.328125 64.378906 18.320312 C 64.425781 18.3125 64.472656 18.304688 64.476562 18.300781 C 64.484375 18.300781 64.503906 18.296875 64.519531 18.296875 C 64.53125 18.296875 64.585938 18.289062 64.636719 18.277344 C 64.691406 18.265625 64.800781 18.246094 64.878906 18.234375 C 64.960938 18.222656 65.035156 18.207031 65.042969 18.203125 C 65.050781 18.199219 65.074219 18.195312 65.089844 18.195312 C 65.105469 18.195312 65.152344 18.1875 65.191406 18.179688 C 65.230469 18.171875 65.269531 18.164062 65.28125 18.164062 C 65.289062 18.164062 65.347656 18.152344 65.40625 18.140625 C 65.46875 18.128906 65.570312 18.113281 65.628906 18.101562 C 65.6875 18.09375 65.75 18.082031 65.765625 18.078125 C 65.78125 18.074219 65.867188 18.058594 65.953125 18.042969 C 66.039062 18.03125 66.132812 18.015625 66.160156 18.007812 C 66.1875 18.003906 66.269531 17.988281 66.34375 17.976562 C 66.421875 17.964844 66.496094 17.949219 66.511719 17.945312 C 66.527344 17.941406 66.5625 17.933594 66.589844 17.929688 C 66.636719 17.925781 66.71875 17.910156 66.914062 17.875 C 66.957031 17.867188 67.015625 17.855469 67.042969 17.851562 C 67.070312 17.847656 67.152344 17.832031 67.226562 17.820312 C 67.300781 17.804688 67.382812 17.792969 67.414062 17.785156 C 67.445312 17.78125 67.539062 17.765625 67.617188 17.75 C 67.789062 17.71875 67.890625 17.703125 67.914062 17.703125 C 67.925781 17.703125 67.96875 17.691406 68.011719 17.679688 C 68.054688 17.671875 68.105469 17.660156 68.117188 17.660156 C 68.128906 17.660156 68.152344 17.65625 68.164062 17.652344 C 68.175781 17.648438 68.210938 17.640625 68.238281 17.640625 C 68.269531 17.636719 68.320312 17.628906 68.351562 17.621094 C 68.386719 17.613281 68.445312 17.601562 68.488281 17.59375 C 68.53125 17.585938 68.582031 17.578125 68.597656 17.578125 C 68.613281 17.574219 68.699219 17.558594 68.789062 17.542969 C 68.878906 17.527344 68.957031 17.511719 68.964844 17.507812 C 68.96875 17.507812 68.988281 17.503906 69.003906 17.503906 C 69.023438 17.503906 69.0625 17.496094 69.097656 17.492188 C 69.128906 17.484375 69.230469 17.464844 69.316406 17.449219 C 69.402344 17.4375 69.484375 17.421875 69.503906 17.417969 C 69.519531 17.414062 69.589844 17.402344 69.65625 17.390625 C 69.726562 17.378906 69.828125 17.363281 69.882812 17.351562 C 69.9375 17.339844 70.007812 17.324219 70.039062 17.320312 C 70.074219 17.316406 70.148438 17.304688 70.199219 17.292969 C 70.253906 17.285156 70.316406 17.273438 70.335938 17.269531 C 70.359375 17.265625 70.390625 17.261719 70.40625 17.257812 C 70.421875 17.257812 70.449219 17.25 70.464844 17.25 C 70.480469 17.246094 70.535156 17.238281 70.582031 17.226562 C 70.632812 17.21875 70.742188 17.199219 70.828125 17.183594 C 71.003906 17.152344 71.027344 17.148438 71.148438 17.125 C 71.191406 17.117188 71.25 17.109375 71.277344 17.105469 C 71.300781 17.101562 71.339844 17.097656 71.359375 17.089844 C 71.398438 17.082031 71.429688 17.074219 71.617188 17.046875 C 71.660156 17.039062 71.710938 17.03125 71.726562 17.027344 C 71.769531 17.015625 71.855469 17 71.992188 16.980469 C 72.050781 16.972656 72.101562 16.960938 72.109375 16.957031 C 72.117188 16.953125 72.167969 16.945312 72.222656 16.9375 C 72.320312 16.921875 72.417969 16.90625 72.511719 16.886719 C 72.636719 16.859375 72.964844 16.804688 73.066406 16.789062 C 73.128906 16.78125 73.226562 16.761719 73.277344 16.75 C 73.328125 16.738281 73.40625 16.726562 73.445312 16.71875 C 73.488281 16.714844 73.582031 16.699219 73.65625 16.683594 C 73.726562 16.671875 73.792969 16.660156 73.800781 16.660156 C 73.804688 16.660156 73.875 16.644531 73.957031 16.632812 C 74.039062 16.617188 74.164062 16.59375 74.242188 16.582031 C 74.316406 16.570312 74.382812 16.558594 74.390625 16.554688 C 74.394531 16.554688 74.4375 16.546875 74.484375 16.539062 C 74.582031 16.523438 74.664062 16.507812 74.746094 16.492188 C 74.78125 16.484375 74.816406 16.476562 74.828125 16.476562 C 74.851562 16.476562 74.875 16.472656 75.023438 16.445312 C 75.058594 16.4375 75.089844 16.429688 75.097656 16.429688 C 75.105469 16.429688 75.128906 16.425781 75.144531 16.421875 C 75.160156 16.417969 75.230469 16.40625 75.292969 16.394531 C 75.359375 16.382812 75.507812 16.355469 75.621094 16.332031 C 75.800781 16.296875 75.84375 16.285156 75.949219 16.242188 C 76.015625 16.214844 76.070312 16.1875 76.070312 16.183594 C 76.070312 16.179688 76.085938 16.171875 76.097656 16.164062 C 76.113281 16.15625 76.140625 16.136719 76.15625 16.113281 C 76.183594 16.082031 76.1875 15.96875 76.191406 15.148438 C 76.191406 14.28125 76.195312 14.21875 76.226562 14.203125 C 76.292969 14.164062 76.304688 14.167969 76.550781 14.210938 C 76.609375 14.21875 76.722656 14.238281 76.808594 14.25 C 76.894531 14.265625 76.996094 14.28125 77.035156 14.289062 C 77.070312 14.292969 77.148438 14.304688 77.203125 14.3125 C 77.257812 14.320312 77.324219 14.332031 77.355469 14.339844 C 77.386719 14.347656 77.425781 14.355469 77.449219 14.355469 C 77.46875 14.355469 77.488281 14.355469 77.496094 14.359375 C 77.5 14.363281 77.605469 14.378906 77.726562 14.398438 C 77.960938 14.433594 78.023438 14.445312 78.113281 14.457031 C 78.140625 14.464844 78.265625 14.484375 78.390625 14.503906 C 78.515625 14.523438 78.648438 14.542969 78.6875 14.550781 C 78.722656 14.558594 78.769531 14.5625 78.785156 14.5625 C 78.804688 14.5625 78.828125 14.566406 78.839844 14.570312 C 78.851562 14.578125 78.953125 14.59375 79.0625 14.613281 C 79.175781 14.628906 79.289062 14.648438 79.316406 14.652344 C 79.34375 14.65625 79.414062 14.667969 79.472656 14.675781 C 79.613281 14.695312 79.734375 14.714844 79.757812 14.722656 C 79.769531 14.726562 79.804688 14.734375 79.835938 14.734375 C 79.871094 14.738281 79.941406 14.75 80 14.757812 C 80.054688 14.769531 80.113281 14.78125 80.132812 14.78125 C 80.148438 14.78125 80.1875 14.785156 80.214844 14.789062 C 80.34375 14.816406 80.523438 14.847656 80.554688 14.847656 C 80.566406 14.847656 80.621094 14.855469 80.679688 14.867188 C 80.734375 14.875 80.847656 14.894531 80.929688 14.910156 C 81.125 14.9375 81.722656 15.03125 81.832031 15.050781 C 81.882812 15.058594 81.96875 15.074219 82.03125 15.082031 C 82.089844 15.089844 82.160156 15.101562 82.1875 15.105469 C 82.375 15.136719 82.46875 15.152344 82.738281 15.195312 C 82.90625 15.222656 83.074219 15.25 83.117188 15.257812 C 83.15625 15.265625 83.199219 15.273438 83.214844 15.273438 C 83.230469 15.273438 83.261719 15.277344 83.285156 15.28125 C 83.308594 15.285156 83.425781 15.304688 83.539062 15.324219 C 84.011719 15.398438 84.183594 15.425781 84.230469 15.433594 C 84.257812 15.441406 84.292969 15.445312 84.304688 15.445312 C 84.320312 15.445312 84.378906 15.457031 84.4375 15.46875 C 84.496094 15.476562 84.558594 15.488281 84.574219 15.488281 C 84.585938 15.488281 84.609375 15.492188 84.621094 15.496094 C 84.648438 15.503906 84.824219 15.523438 84.96875 15.535156 C 85.199219 15.550781 85.402344 15.542969 85.601562 15.515625 C 85.636719 15.507812 85.699219 15.5 85.742188 15.496094 C 85.84375 15.480469 86.128906 15.394531 86.160156 15.367188 C 86.171875 15.355469 86.207031 15.332031 86.234375 15.316406 L 86.289062 15.285156 L 86.289062 12.785156 C 86.289062 10.792969 86.28125 10.285156 86.265625 10.277344 C 86.25 10.273438 86.238281 10.265625 86.238281 10.261719 C 86.238281 10.253906 86.226562 10.246094 86.210938 10.242188 C 86.195312 10.238281 86.175781 10.226562 86.167969 10.21875 C 86.152344 10.195312 85.878906 10.09375 85.816406 10.085938 C 85.789062 10.085938 85.734375 10.074219 85.695312 10.066406 C 85.628906 10.054688 85.550781 10.046875 85.414062 10.035156 C 85.398438 10.035156 85.324219 10.03125 85.25 10.027344 C 85.117188 10.027344 84.820312 10.042969 84.703125 10.058594 C 84.675781 10.0625 84.621094 10.074219 84.578125 10.078125 C 84.535156 10.085938 84.46875 10.097656 84.433594 10.105469 C 84.402344 10.113281 84.359375 10.117188 84.34375 10.117188 C 84.328125 10.117188 84.292969 10.121094 84.265625 10.128906 C 84.238281 10.136719 84.203125 10.140625 84.1875 10.140625 C 84.171875 10.140625 84.152344 10.144531 84.144531 10.148438 C 84.132812 10.148438 84.035156 10.167969 83.925781 10.183594 C 83.820312 10.203125 83.640625 10.230469 83.535156 10.246094 C 83.425781 10.265625 83.296875 10.285156 83.25 10.292969 C 83.199219 10.296875 83.148438 10.304688 83.132812 10.308594 C 83.117188 10.3125 83.070312 10.320312 83.035156 10.324219 C 82.996094 10.328125 82.953125 10.335938 82.9375 10.339844 C 82.925781 10.34375 82.851562 10.355469 82.78125 10.367188 C 82.707031 10.375 82.59375 10.394531 82.519531 10.40625 C 82.382812 10.429688 81.984375 10.496094 81.546875 10.5625 C 81.394531 10.585938 81.265625 10.605469 81.253906 10.609375 C 81.242188 10.613281 81.222656 10.617188 81.210938 10.617188 C 81.195312 10.617188 81.140625 10.625 81.082031 10.636719 C 81.023438 10.648438 80.929688 10.664062 80.871094 10.671875 C 80.808594 10.675781 80.738281 10.6875 80.714844 10.695312 C 80.6875 10.699219 80.617188 10.710938 80.554688 10.71875 C 80.496094 10.730469 80.425781 10.738281 80.398438 10.746094 C 80.371094 10.75 80.265625 10.765625 80.167969 10.78125 C 80.074219 10.792969 79.980469 10.808594 79.964844 10.816406 C 79.949219 10.820312 79.929688 10.824219 79.914062 10.824219 C 79.898438 10.824219 79.816406 10.835938 79.726562 10.851562 C 79.460938 10.894531 79.445312 10.898438 79.414062 10.902344 C 79.398438 10.902344 79.332031 10.914062 79.265625 10.925781 C 79.203125 10.9375 79.078125 10.957031 78.992188 10.96875 C 78.84375 10.992188 78.789062 11 78.667969 11.023438 C 78.640625 11.027344 78.585938 11.035156 78.546875 11.039062 C 78.511719 11.042969 78.457031 11.054688 78.429688 11.058594 C 78.402344 11.066406 78.359375 11.070312 78.332031 11.074219 C 78.304688 11.078125 78.246094 11.085938 78.199219 11.09375 C 78.15625 11.105469 78.097656 11.113281 78.074219 11.117188 C 78.050781 11.117188 78.007812 11.125 77.980469 11.132812 C 77.953125 11.140625 77.921875 11.144531 77.910156 11.144531 C 77.898438 11.144531 77.863281 11.148438 77.832031 11.152344 C 77.402344 11.222656 77.292969 11.242188 76.953125 11.292969 C 76.890625 11.304688 76.835938 11.3125 76.828125 11.316406 C 76.820312 11.320312 76.804688 11.324219 76.789062 11.324219 C 76.777344 11.324219 76.675781 11.339844 76.5625 11.355469 C 76.328125 11.394531 76.253906 11.398438 76.234375 11.371094 C 76.226562 11.359375 76.214844 11.351562 76.207031 11.351562 C 76.195312 11.347656 76.1875 11.074219 76.1875 10.730469 L 76.1875 10.117188 L 76.144531 10.089844 C 76.089844 10.054688 75.976562 10.027344 75.875 10.015625 C 75.820312 10.011719 71.164062 10.007812 56.804688 10.007812 L 37.804688 10.007812 Z M 69.410156 11.378906 C 69.546875 11.386719 69.539062 11.371094 69.542969 11.730469 C 69.542969 12.046875 69.539062 12.058594 69.503906 12.078125 L 69.460938 12.097656 L 56.828125 12.097656 C 47.53125 12.097656 44.179688 12.097656 44.144531 12.089844 C 44.117188 12.085938 44.089844 12.078125 44.085938 12.070312 C 44.078125 12.066406 44.074219 11.910156 44.074219 11.730469 C 44.074219 11.386719 44.070312 11.394531 44.160156 11.378906 C 44.210938 11.371094 69.292969 11.367188 69.410156 11.378906 Z M 69.5 13.480469 C 69.542969 13.492188 69.542969 13.492188 69.542969 13.832031 C 69.542969 14.171875 69.542969 14.171875 69.5 14.183594 C 69.457031 14.195312 69.222656 14.195312 56.804688 14.195312 C 44.164062 14.195312 44.152344 14.195312 44.113281 14.183594 C 44.074219 14.171875 44.074219 14.164062 44.074219 13.832031 L 44.070312 13.492188 L 44.121094 13.480469 L 44.171875 13.464844 L 56.816406 13.46875 C 69.21875 13.46875 69.457031 13.46875 69.5 13.480469 Z M 66.449219 15.5625 C 66.472656 15.566406 66.496094 15.574219 66.503906 15.578125 C 66.519531 15.59375 66.464844 15.613281 66.339844 15.632812 C 66.289062 15.640625 66.222656 15.652344 66.1875 15.660156 C 66.15625 15.667969 66.105469 15.675781 66.070312 15.679688 C 65.957031 15.699219 65.816406 15.722656 65.792969 15.726562 C 65.773438 15.734375 65.667969 15.75 65.53125 15.773438 C 65.480469 15.78125 65.429688 15.792969 65.410156 15.796875 C 65.394531 15.800781 65.316406 15.816406 65.234375 15.828125 C 65.152344 15.839844 65.050781 15.859375 65.003906 15.867188 C 64.960938 15.875 64.902344 15.886719 64.875 15.890625 C 64.851562 15.894531 64.8125 15.898438 64.792969 15.902344 C 64.308594 15.992188 64.09375 16.027344 64.082031 16.027344 C 64.078125 16.027344 64.023438 16.039062 63.964844 16.050781 C 63.90625 16.058594 63.796875 16.078125 63.726562 16.089844 C 63.652344 16.105469 63.578125 16.117188 63.5625 16.121094 C 63.546875 16.125 63.453125 16.140625 63.355469 16.15625 C 63.261719 16.171875 63.164062 16.1875 63.148438 16.191406 C 63.132812 16.199219 63.046875 16.214844 62.953125 16.230469 C 62.742188 16.265625 62.550781 16.296875 62.460938 16.316406 C 62.425781 16.320312 62.347656 16.335938 62.292969 16.34375 C 62.242188 16.351562 62.160156 16.367188 62.117188 16.375 C 62.074219 16.382812 61.980469 16.398438 61.910156 16.410156 C 61.839844 16.421875 61.75 16.4375 61.714844 16.445312 C 61.625 16.460938 61.527344 16.480469 61.417969 16.496094 C 61.25 16.527344 60.9375 16.582031 60.910156 16.585938 C 60.898438 16.589844 60.820312 16.605469 60.738281 16.617188 C 60.652344 16.628906 60.570312 16.644531 60.554688 16.648438 C 60.539062 16.652344 60.457031 16.667969 60.375 16.679688 C 60.292969 16.695312 60.199219 16.710938 60.167969 16.714844 C 60.136719 16.722656 60.0625 16.738281 60.003906 16.746094 C 59.78125 16.785156 59.578125 16.820312 59.425781 16.847656 C 59.339844 16.863281 59.242188 16.878906 59.207031 16.886719 C 59.175781 16.890625 59.136719 16.894531 59.117188 16.902344 C 59.101562 16.90625 59.011719 16.921875 58.910156 16.9375 C 58.816406 16.953125 58.722656 16.96875 58.703125 16.972656 C 58.6875 16.976562 58.597656 16.992188 58.5 17.011719 C 58.402344 17.027344 58.308594 17.042969 58.289062 17.046875 C 58.261719 17.054688 58.195312 17.066406 58.046875 17.089844 C 58.015625 17.09375 57.960938 17.101562 57.929688 17.109375 C 57.902344 17.117188 57.804688 17.132812 57.722656 17.144531 C 57.640625 17.160156 57.558594 17.171875 57.542969 17.179688 C 57.527344 17.183594 57.453125 17.195312 57.378906 17.207031 C 57.300781 17.21875 57.210938 17.234375 57.179688 17.242188 C 57.101562 17.261719 56.898438 17.289062 56.847656 17.289062 C 56.796875 17.289062 56.457031 17.238281 56.382812 17.21875 C 56.367188 17.214844 56.304688 17.203125 56.246094 17.195312 C 56.1875 17.1875 56.101562 17.171875 56.058594 17.164062 C 56.015625 17.152344 55.945312 17.140625 55.902344 17.136719 C 55.859375 17.128906 55.746094 17.109375 55.65625 17.089844 C 55.558594 17.074219 55.476562 17.058594 55.472656 17.058594 C 55.464844 17.058594 55.398438 17.046875 55.316406 17.035156 C 55.238281 17.019531 55.128906 17 55.074219 16.988281 C 55.019531 16.980469 54.910156 16.960938 54.832031 16.949219 C 54.753906 16.9375 54.65625 16.917969 54.617188 16.910156 C 54.578125 16.902344 54.472656 16.882812 54.378906 16.871094 C 54.285156 16.855469 54.199219 16.839844 54.183594 16.835938 C 54.164062 16.832031 54.082031 16.816406 53.996094 16.800781 C 53.910156 16.789062 53.824219 16.773438 53.808594 16.769531 C 53.792969 16.765625 53.722656 16.753906 53.652344 16.742188 C 53.480469 16.714844 53.214844 16.667969 53.066406 16.640625 C 53 16.625 52.933594 16.617188 52.925781 16.617188 C 52.917969 16.617188 52.898438 16.613281 52.882812 16.605469 C 52.871094 16.601562 52.847656 16.597656 52.832031 16.597656 C 52.816406 16.597656 52.773438 16.589844 52.738281 16.582031 C 52.703125 16.574219 52.605469 16.558594 52.519531 16.542969 C 52.433594 16.53125 52.347656 16.515625 52.332031 16.511719 C 52.316406 16.507812 52.234375 16.492188 52.144531 16.476562 C 52.058594 16.464844 51.941406 16.445312 51.878906 16.433594 C 51.820312 16.421875 51.6875 16.398438 51.585938 16.382812 C 51.484375 16.363281 51.304688 16.332031 51.191406 16.3125 C 51.078125 16.292969 50.96875 16.273438 50.945312 16.269531 C 50.925781 16.269531 50.882812 16.261719 50.847656 16.253906 C 50.816406 16.246094 50.71875 16.226562 50.632812 16.214844 C 50.546875 16.199219 50.460938 16.183594 50.445312 16.179688 C 50.429688 16.175781 50.34375 16.160156 50.253906 16.148438 C 50.164062 16.132812 50.085938 16.121094 50.082031 16.117188 C 50.074219 16.117188 50.027344 16.105469 49.976562 16.097656 C 49.839844 16.078125 49.730469 16.058594 49.707031 16.050781 C 49.699219 16.050781 49.617188 16.035156 49.53125 16.023438 C 49.445312 16.007812 49.347656 15.992188 49.3125 15.984375 C 49.28125 15.976562 49.238281 15.96875 49.21875 15.964844 C 49.195312 15.964844 49.097656 15.945312 49 15.929688 C 48.902344 15.914062 48.761719 15.886719 48.6875 15.875 C 48.613281 15.863281 48.480469 15.839844 48.390625 15.824219 C 48.304688 15.808594 48.152344 15.78125 48.054688 15.765625 C 47.214844 15.621094 47.171875 15.609375 47.164062 15.589844 C 47.160156 15.578125 47.167969 15.570312 47.183594 15.566406 C 47.214844 15.558594 66.378906 15.558594 66.449219 15.5625 Z M 66.449219 15.5625 "/>
<path style=" stroke:none;fill-rule:nonzero;fill:rgb(0%,0%,0%);fill-opacity:1;" d="M 88.304688 23.71875 C 86.980469 23.71875 86.144531 23.722656 86.128906 23.726562 C 86.117188 23.730469 86.070312 23.734375 86.023438 23.738281 C 85.972656 23.738281 85.925781 23.742188 85.914062 23.746094 C 85.902344 23.746094 85.855469 23.753906 85.804688 23.757812 C 85.757812 23.761719 85.710938 23.769531 85.703125 23.773438 C 85.695312 23.777344 85.667969 23.78125 85.648438 23.78125 C 85.628906 23.78125 85.605469 23.785156 85.597656 23.785156 C 85.59375 23.789062 85.539062 23.800781 85.484375 23.808594 C 85.410156 23.820312 85.3125 23.84375 85.179688 23.882812 C 85.066406 23.917969 84.980469 23.949219 84.980469 23.953125 C 84.980469 23.957031 84.960938 23.964844 84.9375 23.972656 C 84.917969 23.976562 84.882812 23.992188 84.863281 24.003906 C 84.84375 24.015625 84.8125 24.03125 84.792969 24.042969 C 84.777344 24.050781 84.761719 24.0625 84.761719 24.070312 C 84.761719 24.074219 84.75 24.082031 84.734375 24.089844 C 84.71875 24.097656 84.703125 24.105469 84.703125 24.113281 C 84.703125 24.121094 84.695312 24.128906 84.683594 24.132812 C 84.671875 24.136719 84.652344 24.171875 84.636719 24.210938 C 84.613281 24.269531 84.613281 24.292969 84.636719 24.351562 C 84.652344 24.390625 84.671875 24.429688 84.683594 24.429688 C 84.695312 24.433594 84.703125 24.441406 84.703125 24.449219 C 84.703125 24.460938 84.855469 24.558594 84.894531 24.566406 C 84.910156 24.570312 84.921875 24.578125 84.921875 24.585938 C 84.921875 24.59375 84.929688 24.597656 84.941406 24.597656 C 84.953125 24.597656 84.96875 24.601562 84.976562 24.609375 C 85.007812 24.636719 85.242188 24.707031 85.40625 24.738281 C 85.519531 24.761719 85.847656 24.8125 85.890625 24.8125 C 85.910156 24.8125 85.945312 24.816406 85.96875 24.820312 C 86.058594 24.839844 86.363281 24.84375 87.484375 24.84375 C 88.425781 24.84375 88.625 24.84375 88.75 24.851562 C 88.835938 24.859375 88.917969 24.867188 88.933594 24.871094 C 88.949219 24.875 88.988281 24.878906 89.011719 24.878906 C 89.042969 24.878906 89.085938 24.886719 89.121094 24.898438 C 89.152344 24.90625 89.1875 24.914062 89.203125 24.914062 C 89.238281 24.914062 89.503906 24.996094 89.503906 25.007812 C 89.503906 25.011719 89.515625 25.019531 89.535156 25.023438 C 89.550781 25.027344 89.574219 25.039062 89.582031 25.042969 C 89.59375 25.050781 89.609375 25.058594 89.617188 25.066406 C 89.628906 25.070312 89.660156 25.089844 89.691406 25.109375 C 89.71875 25.128906 89.75 25.152344 89.757812 25.15625 C 89.769531 25.164062 89.777344 25.175781 89.777344 25.183594 C 89.777344 25.191406 89.792969 25.207031 89.808594 25.21875 C 89.84375 25.238281 89.867188 25.394531 89.839844 25.457031 C 89.8125 25.515625 89.78125 25.5625 89.75 25.585938 C 89.734375 25.59375 89.714844 25.609375 89.699219 25.621094 C 89.675781 25.640625 89.652344 25.652344 89.585938 25.6875 C 89.484375 25.75 89.0625 25.863281 88.949219 25.863281 C 88.933594 25.863281 88.902344 25.867188 88.882812 25.871094 C 88.863281 25.875 88.792969 25.882812 88.726562 25.882812 C 88.527344 25.890625 86.214844 25.894531 86.191406 25.886719 C 86.179688 25.882812 86.113281 25.882812 86.042969 25.882812 C 85.964844 25.882812 85.898438 25.878906 85.875 25.875 C 85.851562 25.867188 85.808594 25.863281 85.773438 25.859375 C 85.738281 25.859375 85.699219 25.851562 85.6875 25.847656 C 85.675781 25.84375 85.652344 25.839844 85.640625 25.839844 C 85.582031 25.839844 85.175781 25.734375 85.175781 25.71875 C 85.175781 25.714844 85.15625 25.703125 85.128906 25.691406 C 85.101562 25.683594 85.078125 25.671875 85.078125 25.667969 C 85.078125 25.667969 85.058594 25.652344 85.039062 25.640625 C 84.980469 25.601562 84.941406 25.550781 84.941406 25.523438 C 84.9375 25.480469 84.910156 25.441406 84.878906 25.4375 C 84.863281 25.433594 84.816406 25.429688 84.769531 25.429688 C 84.703125 25.429688 84.679688 25.433594 84.648438 25.445312 C 84.609375 25.460938 84.605469 25.46875 84.605469 25.671875 C 84.605469 25.875 84.621094 25.933594 84.667969 25.933594 C 84.679688 25.933594 84.695312 25.941406 84.703125 25.949219 C 84.714844 25.957031 84.738281 25.96875 84.757812 25.96875 C 84.777344 25.972656 84.816406 25.980469 84.839844 25.984375 C 84.886719 25.996094 84.984375 25.996094 87.128906 25.996094 C 89.316406 25.996094 89.589844 25.992188 89.648438 25.976562 C 89.660156 25.972656 89.699219 25.972656 89.738281 25.972656 C 89.777344 25.972656 89.828125 25.96875 89.847656 25.960938 C 89.867188 25.957031 89.90625 25.953125 89.929688 25.953125 C 89.984375 25.953125 90.308594 25.90625 90.308594 25.898438 C 90.308594 25.894531 90.328125 25.890625 90.351562 25.890625 C 90.375 25.886719 90.417969 25.878906 90.445312 25.871094 C 90.472656 25.863281 90.503906 25.859375 90.515625 25.859375 C 90.539062 25.859375 90.859375 25.761719 90.859375 25.753906 C 90.859375 25.75 90.894531 25.734375 90.933594 25.71875 C 91.011719 25.691406 91.046875 25.671875 91.070312 25.660156 C 91.078125 25.65625 91.097656 25.640625 91.117188 25.625 C 91.199219 25.570312 91.210938 25.558594 91.222656 25.539062 C 91.230469 25.527344 91.242188 25.511719 91.253906 25.507812 C 91.292969 25.480469 91.328125 25.324219 91.300781 25.316406 C 91.292969 25.3125 91.28125 25.292969 91.277344 25.269531 C 91.273438 25.25 91.261719 25.226562 91.25 25.222656 C 91.238281 25.21875 91.226562 25.207031 91.21875 25.195312 C 91.214844 25.183594 91.203125 25.171875 91.195312 25.171875 C 91.1875 25.167969 91.171875 25.152344 91.15625 25.136719 C 91.140625 25.125 91.117188 25.109375 91.101562 25.105469 C 91.089844 25.101562 91.078125 25.09375 91.078125 25.085938 C 91.078125 25.078125 91.070312 25.070312 91.058594 25.070312 C 91.039062 25.070312 91.007812 25.054688 90.953125 25.019531 C 90.914062 24.996094 90.511719 24.875 90.421875 24.859375 C 90.382812 24.851562 90.347656 24.84375 90.347656 24.84375 C 90.347656 24.839844 90.335938 24.835938 90.320312 24.835938 C 90.308594 24.835938 90.261719 24.832031 90.222656 24.824219 C 90.183594 24.8125 90.136719 24.808594 90.125 24.808594 C 90.109375 24.808594 90.085938 24.804688 90.074219 24.796875 C 90.058594 24.792969 90.027344 24.789062 89.996094 24.789062 C 89.96875 24.789062 89.933594 24.785156 89.921875 24.78125 C 89.90625 24.777344 89.855469 24.773438 89.804688 24.769531 C 89.75 24.769531 89.671875 24.761719 89.621094 24.757812 C 89.558594 24.753906 89.148438 24.75 88.265625 24.746094 C 86.980469 24.742188 86.976562 24.742188 86.820312 24.722656 C 86.796875 24.71875 86.753906 24.710938 86.726562 24.707031 C 86.699219 24.699219 86.644531 24.6875 86.601562 24.679688 C 86.480469 24.65625 86.234375 24.554688 86.207031 24.519531 C 86.203125 24.511719 86.183594 24.5 86.167969 24.496094 C 86.152344 24.492188 86.140625 24.476562 86.140625 24.464844 C 86.140625 24.453125 86.125 24.4375 86.105469 24.429688 C 86.058594 24.410156 86.058594 24.160156 86.109375 24.132812 C 86.125 24.121094 86.140625 24.105469 86.140625 24.097656 C 86.140625 24.085938 86.152344 24.074219 86.167969 24.066406 C 86.183594 24.058594 86.199219 24.046875 86.199219 24.042969 C 86.199219 24.035156 86.210938 24.027344 86.226562 24.019531 C 86.246094 24.015625 86.257812 24.007812 86.257812 24.003906 C 86.257812 23.996094 86.28125 23.988281 86.308594 23.980469 C 86.335938 23.972656 86.355469 23.960938 86.355469 23.957031 C 86.355469 23.949219 86.570312 23.878906 86.597656 23.878906 C 86.613281 23.878906 86.65625 23.867188 86.699219 23.859375 C 86.742188 23.847656 86.785156 23.839844 86.792969 23.839844 C 86.808594 23.839844 86.832031 23.835938 86.855469 23.832031 C 86.890625 23.820312 87.003906 23.820312 88.65625 23.820312 C 89.625 23.820312 90.425781 23.816406 90.4375 23.816406 C 90.449219 23.816406 90.484375 23.8125 90.515625 23.800781 C 90.597656 23.777344 90.578125 23.726562 90.488281 23.71875 C 90.46875 23.71875 89.488281 23.71875 88.304688 23.71875 Z M 88.304688 23.71875 "/>
<path style=" stroke:none;fill-rule:nonzero;fill:rgb(0%,0%,0%);fill-opacity:1;" d="M 28.132812 23.730469 C 28.113281 23.734375 28.058594 23.738281 28.019531 23.738281 C 27.980469 23.738281 27.929688 23.742188 27.910156 23.746094 C 27.855469 23.753906 27.660156 23.78125 27.644531 23.78125 C 27.621094 23.78125 27.398438 23.832031 27.34375 23.847656 C 27.3125 23.855469 27.277344 23.863281 27.265625 23.863281 C 27.21875 23.863281 26.917969 23.980469 26.871094 24.015625 C 26.859375 24.023438 26.773438 24.082031 26.742188 24.101562 C 26.734375 24.105469 26.726562 24.117188 26.726562 24.125 C 26.726562 24.128906 26.714844 24.140625 26.695312 24.148438 C 26.652344 24.171875 26.648438 24.375 26.695312 24.402344 C 26.714844 24.414062 26.726562 24.429688 26.726562 24.4375 C 26.726562 24.457031 26.855469 24.546875 26.925781 24.574219 C 26.957031 24.585938 26.984375 24.597656 26.984375 24.601562 C 26.984375 24.605469 27.085938 24.640625 27.207031 24.675781 C 27.375 24.726562 27.46875 24.75 27.5625 24.765625 C 27.632812 24.773438 27.695312 24.785156 27.699219 24.789062 C 27.707031 24.792969 27.726562 24.796875 27.746094 24.796875 C 27.761719 24.796875 27.804688 24.800781 27.835938 24.804688 C 27.867188 24.808594 27.910156 24.8125 27.933594 24.8125 C 27.957031 24.8125 27.996094 24.816406 28.015625 24.820312 C 28.101562 24.839844 28.359375 24.84375 29.507812 24.84375 C 30.136719 24.84375 30.6875 24.847656 30.730469 24.847656 C 30.773438 24.851562 30.835938 24.855469 30.867188 24.859375 C 30.941406 24.863281 31.089844 24.882812 31.105469 24.890625 C 31.109375 24.894531 31.128906 24.898438 31.144531 24.898438 C 31.164062 24.898438 31.21875 24.910156 31.269531 24.921875 C 31.320312 24.9375 31.382812 24.953125 31.414062 24.960938 C 31.441406 24.964844 31.464844 24.972656 31.464844 24.976562 C 31.464844 24.980469 31.484375 24.992188 31.507812 24.996094 C 31.53125 25.003906 31.566406 25.019531 31.589844 25.03125 C 31.609375 25.039062 31.648438 25.0625 31.671875 25.074219 C 31.695312 25.089844 31.722656 25.109375 31.730469 25.117188 C 31.738281 25.128906 31.757812 25.140625 31.773438 25.144531 C 31.789062 25.148438 31.800781 25.160156 31.800781 25.171875 C 31.800781 25.183594 31.8125 25.191406 31.824219 25.191406 C 31.894531 25.199219 31.902344 25.507812 31.832031 25.535156 C 31.816406 25.539062 31.800781 25.554688 31.792969 25.570312 C 31.785156 25.582031 31.765625 25.601562 31.75 25.605469 C 31.734375 25.613281 31.722656 25.625 31.722656 25.632812 C 31.722656 25.640625 31.714844 25.648438 31.703125 25.648438 C 31.695312 25.648438 31.667969 25.660156 31.644531 25.671875 C 31.621094 25.6875 31.585938 25.703125 31.566406 25.710938 C 31.542969 25.714844 31.527344 25.722656 31.527344 25.726562 C 31.527344 25.734375 31.296875 25.8125 31.214844 25.828125 C 31.191406 25.835938 31.15625 25.839844 31.140625 25.839844 C 31.125 25.839844 31.105469 25.84375 31.101562 25.847656 C 31.09375 25.851562 31.0625 25.859375 31.023438 25.859375 C 30.988281 25.863281 30.949219 25.867188 30.9375 25.871094 C 30.921875 25.878906 30.875 25.882812 30.800781 25.882812 C 30.738281 25.882812 30.679688 25.882812 30.667969 25.886719 C 30.648438 25.894531 28.371094 25.890625 28.101562 25.882812 C 28.007812 25.882812 27.941406 25.878906 27.925781 25.871094 C 27.914062 25.867188 27.882812 25.863281 27.859375 25.863281 C 27.8125 25.863281 27.613281 25.832031 27.519531 25.8125 C 27.34375 25.769531 27.082031 25.671875 27.082031 25.644531 C 27.082031 25.640625 27.066406 25.632812 27.050781 25.625 C 27.035156 25.617188 27.015625 25.597656 27.007812 25.578125 C 27.003906 25.558594 26.988281 25.539062 26.976562 25.535156 C 26.964844 25.53125 26.953125 25.507812 26.949219 25.484375 C 26.941406 25.460938 26.929688 25.4375 26.917969 25.4375 C 26.902344 25.433594 26.851562 25.429688 26.800781 25.429688 C 26.640625 25.429688 26.648438 25.417969 26.648438 25.683594 L 26.648438 25.914062 L 26.71875 25.945312 C 26.757812 25.957031 26.800781 25.972656 26.816406 25.972656 C 26.832031 25.972656 26.863281 25.976562 26.882812 25.984375 C 26.921875 25.996094 26.949219 25.996094 29.160156 25.996094 C 31.464844 25.996094 31.453125 25.996094 31.792969 25.972656 C 31.894531 25.964844 31.902344 25.964844 32.082031 25.9375 C 32.140625 25.929688 32.199219 25.921875 32.203125 25.921875 C 32.210938 25.921875 32.257812 25.914062 32.304688 25.90625 C 32.355469 25.894531 32.40625 25.886719 32.421875 25.886719 C 32.472656 25.886719 32.988281 25.726562 33.039062 25.691406 C 33.066406 25.675781 33.101562 25.65625 33.121094 25.648438 C 33.140625 25.636719 33.160156 25.625 33.167969 25.613281 C 33.175781 25.605469 33.195312 25.589844 33.210938 25.582031 C 33.226562 25.574219 33.238281 25.5625 33.238281 25.554688 C 33.238281 25.546875 33.246094 25.539062 33.257812 25.535156 C 33.285156 25.527344 33.316406 25.46875 33.328125 25.390625 C 33.339844 25.328125 33.308594 25.242188 33.265625 25.210938 C 33.25 25.203125 33.234375 25.183594 33.226562 25.167969 C 33.21875 25.15625 33.203125 25.140625 33.183594 25.136719 C 33.167969 25.132812 33.15625 25.125 33.15625 25.121094 C 33.15625 25.113281 33.132812 25.097656 33.109375 25.085938 C 33.082031 25.074219 33.046875 25.054688 33.03125 25.042969 C 33.015625 25.035156 32.980469 25.019531 32.953125 25.011719 C 32.925781 25.003906 32.902344 24.992188 32.902344 24.988281 C 32.902344 24.980469 32.554688 24.875 32.523438 24.875 C 32.511719 24.875 32.480469 24.867188 32.457031 24.859375 C 32.398438 24.84375 32.039062 24.789062 31.988281 24.789062 C 31.960938 24.789062 31.933594 24.785156 31.921875 24.78125 C 31.910156 24.777344 31.871094 24.769531 31.835938 24.769531 C 31.800781 24.769531 31.726562 24.761719 31.671875 24.757812 C 31.605469 24.753906 31.164062 24.75 30.28125 24.746094 C 29.289062 24.746094 28.984375 24.742188 28.964844 24.738281 C 28.953125 24.734375 28.929688 24.730469 28.914062 24.730469 C 28.898438 24.730469 28.863281 24.722656 28.835938 24.71875 C 28.808594 24.710938 28.769531 24.707031 28.75 24.707031 C 28.703125 24.707031 28.398438 24.617188 28.351562 24.589844 C 28.269531 24.539062 28.207031 24.496094 28.1875 24.472656 C 28.175781 24.460938 28.148438 24.4375 28.132812 24.421875 C 28.101562 24.394531 28.097656 24.371094 28.097656 24.28125 C 28.097656 24.164062 28.113281 24.132812 28.222656 24.054688 C 28.234375 24.042969 28.253906 24.03125 28.261719 24.027344 C 28.273438 24.023438 28.285156 24.015625 28.289062 24.011719 C 28.328125 23.980469 28.355469 23.96875 28.4375 23.941406 C 28.566406 23.894531 28.675781 23.867188 28.773438 23.851562 C 28.824219 23.84375 28.882812 23.832031 28.902344 23.828125 C 28.929688 23.820312 29.222656 23.820312 30.707031 23.820312 C 32.011719 23.816406 32.492188 23.816406 32.523438 23.808594 C 32.550781 23.804688 32.566406 23.796875 32.566406 23.789062 C 32.566406 23.78125 32.578125 23.773438 32.585938 23.773438 C 32.597656 23.773438 32.605469 23.769531 32.605469 23.761719 C 32.605469 23.757812 32.597656 23.75 32.589844 23.75 C 32.578125 23.75 32.566406 23.746094 32.5625 23.738281 L 32.558594 23.722656 L 30.363281 23.722656 C 28.457031 23.722656 28.164062 23.722656 28.132812 23.730469 Z M 28.132812 23.730469 "/>
<path style=" stroke:none;fill-rule:nonzero;fill:rgb(0%,0%,0%);fill-opacity:1;" d="M 34.332031 23.730469 C 34.28125 23.75 34.289062 23.78125 34.351562 23.800781 L 34.402344 23.816406 L 36.476562 23.820312 L 38.554688 23.820312 L 38.625 23.832031 C 38.664062 23.839844 38.707031 23.847656 38.722656 23.847656 C 38.738281 23.847656 38.785156 23.855469 38.832031 23.867188 C 38.878906 23.878906 38.925781 23.890625 38.933594 23.890625 C 38.957031 23.890625 39.195312 23.964844 39.195312 23.96875 C 39.195312 23.972656 39.21875 23.984375 39.246094 23.992188 C 39.273438 24.003906 39.292969 24.015625 39.292969 24.019531 C 39.292969 24.023438 39.3125 24.03125 39.332031 24.035156 C 39.355469 24.042969 39.371094 24.050781 39.371094 24.054688 C 39.371094 24.0625 39.386719 24.070312 39.402344 24.078125 C 39.417969 24.085938 39.433594 24.09375 39.433594 24.097656 C 39.433594 24.105469 39.445312 24.117188 39.464844 24.128906 C 39.539062 24.175781 39.601562 24.386719 39.554688 24.433594 C 39.542969 24.445312 39.519531 24.476562 39.5 24.507812 C 39.480469 24.535156 39.457031 24.558594 39.449219 24.558594 C 39.441406 24.5625 39.433594 24.566406 39.433594 24.574219 C 39.433594 24.578125 39.417969 24.585938 39.402344 24.589844 C 39.386719 24.59375 39.371094 24.605469 39.363281 24.617188 C 39.355469 24.628906 39.339844 24.640625 39.324219 24.644531 C 39.308594 24.648438 39.292969 24.65625 39.292969 24.660156 C 39.292969 24.667969 39.128906 24.730469 39.113281 24.730469 C 39.101562 24.730469 39.097656 24.734375 39.097656 24.738281 C 39.097656 24.746094 39.011719 24.769531 38.988281 24.769531 C 38.980469 24.769531 38.949219 24.777344 38.917969 24.785156 C 38.847656 24.808594 38.8125 24.8125 38.570312 24.847656 C 38.503906 24.855469 38.398438 24.859375 37.53125 24.859375 C 36.730469 24.863281 36.5625 24.859375 36.542969 24.855469 C 36.527344 24.847656 36.519531 24.75 36.515625 24.511719 L 36.511719 24.179688 L 36.445312 24.15625 C 36.324219 24.117188 36.296875 24.117188 35.796875 24.117188 C 35.320312 24.117188 35.25 24.121094 35.15625 24.144531 C 35.066406 24.171875 35.066406 24.175781 35.0625 24.574219 C 35.0625 24.777344 35.054688 25.128906 35.046875 25.351562 C 35.035156 25.753906 35.035156 25.753906 34.988281 25.777344 C 34.945312 25.804688 34.75 25.863281 34.710938 25.863281 C 34.699219 25.863281 34.675781 25.867188 34.660156 25.871094 C 34.644531 25.878906 34.601562 25.882812 34.566406 25.882812 C 34.496094 25.882812 34.375 25.894531 34.332031 25.90625 C 34.289062 25.914062 34.289062 25.953125 34.332031 25.976562 L 34.359375 25.996094 L 35.792969 25.996094 C 36.878906 25.996094 37.226562 25.992188 37.246094 25.988281 C 37.257812 25.984375 37.269531 25.964844 37.269531 25.949219 C 37.269531 25.921875 37.261719 25.914062 37.207031 25.898438 C 37.152344 25.886719 37.121094 25.882812 37.054688 25.882812 C 36.898438 25.882812 36.703125 25.835938 36.597656 25.777344 L 36.53125 25.742188 L 36.519531 25.523438 C 36.515625 25.40625 36.515625 25.265625 36.523438 25.214844 C 36.53125 25.128906 36.539062 25.121094 36.59375 25.085938 C 36.648438 25.050781 36.796875 25 36.84375 25 C 36.859375 25 36.882812 24.996094 36.894531 24.992188 C 36.910156 24.984375 36.933594 24.980469 36.953125 24.980469 C 36.96875 24.980469 37.011719 24.976562 37.042969 24.972656 C 37.125 24.957031 37.515625 24.957031 37.582031 24.972656 C 37.609375 24.976562 37.65625 24.980469 37.6875 24.980469 C 37.714844 24.980469 37.746094 24.984375 37.753906 24.992188 C 37.761719 24.996094 37.78125 25 37.800781 25 C 37.855469 25 38.136719 25.089844 38.199219 25.125 C 38.226562 25.144531 38.265625 25.164062 38.28125 25.167969 C 38.300781 25.171875 38.328125 25.183594 38.34375 25.195312 C 38.359375 25.203125 38.394531 25.222656 38.417969 25.238281 C 38.445312 25.25 38.472656 25.265625 38.480469 25.269531 C 38.488281 25.273438 38.519531 25.289062 38.550781 25.300781 C 38.582031 25.3125 38.605469 25.320312 38.605469 25.324219 C 38.605469 25.328125 38.628906 25.339844 38.65625 25.351562 C 38.683594 25.359375 38.703125 25.371094 38.703125 25.375 C 38.703125 25.378906 38.71875 25.386719 38.734375 25.390625 C 38.75 25.394531 38.761719 25.402344 38.761719 25.40625 C 38.761719 25.410156 38.785156 25.421875 38.816406 25.433594 C 38.882812 25.460938 38.960938 25.496094 38.960938 25.503906 C 38.960938 25.507812 38.992188 25.523438 39.027344 25.539062 C 39.066406 25.554688 39.097656 25.570312 39.097656 25.574219 C 39.097656 25.574219 39.117188 25.585938 39.148438 25.597656 C 39.175781 25.605469 39.195312 25.617188 39.195312 25.621094 C 39.195312 25.621094 39.21875 25.632812 39.242188 25.644531 C 39.265625 25.652344 39.292969 25.671875 39.300781 25.6875 C 39.308594 25.699219 39.324219 25.714844 39.335938 25.71875 C 39.359375 25.726562 39.351562 25.746094 39.3125 25.792969 C 39.285156 25.824219 39.191406 25.863281 39.144531 25.863281 C 39.132812 25.863281 39.109375 25.867188 39.097656 25.871094 C 39.082031 25.878906 39.054688 25.882812 39.03125 25.882812 C 39.007812 25.882812 38.953125 25.886719 38.90625 25.890625 L 38.820312 25.902344 L 38.820312 25.9375 C 38.820312 25.960938 38.828125 25.980469 38.832031 25.984375 C 38.84375 25.996094 39.007812 25.996094 40.464844 25.996094 C 41.910156 25.996094 42.085938 25.996094 42.113281 25.984375 C 42.152344 25.972656 42.15625 25.910156 42.121094 25.902344 C 42.109375 25.894531 42.0625 25.894531 42.015625 25.894531 C 41.96875 25.894531 41.925781 25.890625 41.917969 25.886719 C 41.914062 25.882812 41.84375 25.882812 41.765625 25.882812 C 41.679688 25.882812 41.601562 25.878906 41.566406 25.871094 C 41.539062 25.867188 41.5 25.863281 41.488281 25.863281 C 41.410156 25.863281 41.046875 25.792969 41 25.769531 C 40.992188 25.765625 40.96875 25.761719 40.957031 25.761719 C 40.941406 25.761719 40.925781 25.757812 40.925781 25.753906 C 40.925781 25.75 40.890625 25.734375 40.84375 25.71875 C 40.753906 25.691406 40.746094 25.6875 40.652344 25.636719 C 40.621094 25.621094 40.582031 25.605469 40.570312 25.597656 C 40.535156 25.589844 40.503906 25.574219 40.46875 25.546875 C 40.453125 25.539062 40.429688 25.527344 40.417969 25.523438 C 40.40625 25.523438 40.378906 25.507812 40.355469 25.496094 C 40.335938 25.480469 40.304688 25.464844 40.289062 25.464844 C 40.269531 25.464844 40.257812 25.457031 40.257812 25.449219 C 40.257812 25.445312 40.242188 25.4375 40.226562 25.429688 C 40.210938 25.425781 40.199219 25.421875 40.199219 25.417969 C 40.199219 25.414062 40.1875 25.40625 40.171875 25.402344 C 40.15625 25.398438 40.121094 25.378906 40.089844 25.363281 C 40.058594 25.34375 40.011719 25.324219 39.984375 25.3125 C 39.953125 25.300781 39.914062 25.28125 39.894531 25.265625 C 39.871094 25.253906 39.835938 25.234375 39.8125 25.226562 C 39.785156 25.214844 39.765625 25.207031 39.765625 25.199219 C 39.765625 25.195312 39.746094 25.1875 39.726562 25.183594 C 39.699219 25.175781 39.675781 25.164062 39.664062 25.160156 C 39.65625 25.152344 39.621094 25.132812 39.589844 25.117188 C 39.558594 25.097656 39.523438 25.082031 39.515625 25.078125 C 39.511719 25.074219 39.488281 25.0625 39.46875 25.054688 C 39.445312 25.042969 39.433594 25.03125 39.433594 25.007812 C 39.433594 24.976562 39.4375 24.96875 39.496094 24.953125 C 39.558594 24.933594 39.671875 24.914062 39.71875 24.914062 C 39.730469 24.914062 39.753906 24.910156 39.765625 24.90625 C 39.78125 24.902344 39.8125 24.898438 39.835938 24.898438 C 39.859375 24.898438 39.894531 24.894531 39.910156 24.886719 C 39.925781 24.882812 39.972656 24.875 40.019531 24.867188 C 40.0625 24.859375 40.128906 24.84375 40.171875 24.835938 C 40.261719 24.816406 40.59375 24.71875 40.59375 24.710938 C 40.59375 24.707031 40.625 24.691406 40.660156 24.679688 C 40.699219 24.664062 40.730469 24.648438 40.730469 24.648438 C 40.730469 24.644531 40.742188 24.636719 40.757812 24.632812 C 40.773438 24.628906 40.789062 24.617188 40.789062 24.609375 C 40.789062 24.601562 40.800781 24.589844 40.816406 24.585938 C 40.855469 24.578125 40.945312 24.496094 40.945312 24.46875 C 40.945312 24.460938 40.957031 24.453125 40.972656 24.449219 C 40.988281 24.441406 40.996094 24.414062 40.996094 24.339844 C 40.996094 24.265625 40.988281 24.234375 40.972656 24.230469 C 40.957031 24.226562 40.945312 24.210938 40.945312 24.199219 C 40.945312 24.1875 40.929688 24.164062 40.910156 24.152344 C 40.886719 24.136719 40.867188 24.117188 40.859375 24.105469 C 40.851562 24.097656 40.835938 24.085938 40.832031 24.085938 C 40.824219 24.085938 40.796875 24.074219 40.769531 24.054688 C 40.742188 24.039062 40.691406 24.011719 40.65625 23.996094 C 40.585938 23.964844 40.183594 23.835938 40.152344 23.835938 C 40.144531 23.835938 40.101562 23.828125 40.054688 23.820312 C 39.902344 23.789062 39.71875 23.757812 39.628906 23.753906 C 39.601562 23.75 39.566406 23.75 39.550781 23.746094 C 39.367188 23.726562 39.371094 23.726562 36.832031 23.722656 C 34.457031 23.722656 34.363281 23.722656 34.332031 23.730469 Z M 34.332031 23.730469 "/>
<path style=" stroke:none;fill-rule:nonzero;fill:rgb(0%,0%,0%);fill-opacity:1;" d="M 43.378906 23.726562 C 43.371094 23.726562 43.363281 23.746094 43.363281 23.765625 C 43.363281 23.804688 43.367188 23.804688 43.410156 23.804688 C 43.4375 23.804688 43.464844 23.808594 43.476562 23.8125 C 43.484375 23.8125 44.261719 23.816406 45.429688 23.820312 C 47.238281 23.820312 47.371094 23.820312 47.417969 23.832031 C 47.441406 23.835938 47.480469 23.839844 47.496094 23.839844 C 47.59375 23.839844 48.015625 23.917969 48.070312 23.949219 C 48.078125 23.953125 48.097656 23.957031 48.113281 23.957031 C 48.140625 23.957031 48.222656 23.980469 48.222656 23.988281 C 48.222656 23.992188 48.261719 24.007812 48.3125 24.023438 C 48.359375 24.039062 48.398438 24.054688 48.398438 24.058594 C 48.398438 24.0625 48.421875 24.074219 48.449219 24.082031 C 48.476562 24.089844 48.496094 24.101562 48.496094 24.105469 C 48.496094 24.113281 48.507812 24.117188 48.515625 24.121094 C 48.542969 24.125 48.617188 24.171875 48.617188 24.179688 C 48.617188 24.1875 48.625 24.195312 48.640625 24.203125 C 48.679688 24.226562 48.753906 24.292969 48.765625 24.316406 C 48.773438 24.332031 48.789062 24.347656 48.804688 24.351562 C 48.820312 24.355469 48.832031 24.375 48.832031 24.394531 C 48.832031 24.417969 48.84375 24.429688 48.863281 24.433594 C 48.882812 24.441406 48.890625 24.453125 48.890625 24.476562 C 48.890625 24.496094 48.898438 24.511719 48.910156 24.515625 C 48.929688 24.523438 48.9375 24.554688 48.96875 24.730469 C 48.984375 24.820312 48.984375 24.886719 48.96875 24.972656 C 48.941406 25.132812 48.890625 25.261719 48.851562 25.273438 C 48.84375 25.273438 48.832031 25.289062 48.832031 25.308594 C 48.832031 25.324219 48.820312 25.34375 48.804688 25.351562 C 48.785156 25.359375 48.765625 25.378906 48.753906 25.394531 C 48.730469 25.429688 48.660156 25.492188 48.636719 25.5 C 48.625 25.503906 48.617188 25.511719 48.617188 25.515625 C 48.617188 25.523438 48.480469 25.613281 48.457031 25.617188 C 48.449219 25.621094 48.414062 25.636719 48.375 25.652344 C 48.339844 25.671875 48.289062 25.691406 48.265625 25.699219 C 48.242188 25.703125 48.222656 25.710938 48.222656 25.714844 C 48.222656 25.730469 47.761719 25.839844 47.6875 25.839844 C 47.675781 25.839844 47.632812 25.84375 47.597656 25.851562 C 47.5625 25.859375 47.503906 25.863281 47.46875 25.863281 C 47.433594 25.863281 47.394531 25.867188 47.382812 25.871094 C 47.339844 25.882812 46.164062 25.898438 46.132812 25.886719 C 46.121094 25.882812 46.082031 25.882812 46.042969 25.882812 C 45.929688 25.882812 45.75 25.84375 45.65625 25.796875 C 45.546875 25.742188 45.546875 25.75 45.546875 25.277344 C 45.546875 24.867188 45.546875 24.84375 45.511719 24.816406 C 45.464844 24.785156 45.382812 24.761719 45.28125 24.753906 C 45.191406 24.746094 44.515625 24.746094 44.386719 24.753906 C 44.320312 24.757812 44.28125 24.765625 44.207031 24.789062 L 44.113281 24.820312 L 44.109375 24.984375 C 44.109375 25.074219 44.101562 25.28125 44.09375 25.445312 C 44.078125 25.769531 44.089844 25.742188 43.96875 25.808594 C 43.914062 25.835938 43.675781 25.882812 43.585938 25.882812 C 43.550781 25.882812 43.484375 25.886719 43.4375 25.894531 L 43.34375 25.90625 L 43.34375 25.941406 C 43.34375 25.96875 43.355469 25.984375 43.371094 25.988281 C 43.414062 26 47.25 25.992188 47.425781 25.984375 C 47.492188 25.980469 47.605469 25.972656 47.683594 25.972656 C 47.761719 25.96875 47.84375 25.964844 47.863281 25.960938 C 47.886719 25.957031 47.933594 25.953125 47.972656 25.953125 C 48.007812 25.953125 48.054688 25.949219 48.078125 25.945312 C 48.097656 25.941406 48.132812 25.933594 48.152344 25.933594 C 48.222656 25.933594 48.46875 25.910156 48.519531 25.894531 C 48.535156 25.890625 48.574219 25.886719 48.601562 25.886719 C 48.628906 25.886719 48.660156 25.882812 48.675781 25.878906 C 48.6875 25.875 48.710938 25.871094 48.726562 25.871094 C 48.742188 25.871094 48.785156 25.863281 48.820312 25.855469 C 48.855469 25.847656 48.890625 25.839844 48.898438 25.839844 C 48.914062 25.839844 49.058594 25.808594 49.238281 25.769531 C 49.371094 25.738281 49.660156 25.648438 49.660156 25.636719 C 49.660156 25.636719 49.6875 25.625 49.71875 25.613281 C 49.75 25.605469 49.777344 25.59375 49.777344 25.589844 C 49.777344 25.589844 49.796875 25.578125 49.824219 25.566406 C 49.851562 25.554688 49.875 25.542969 49.875 25.542969 C 49.875 25.539062 49.902344 25.527344 49.933594 25.511719 C 49.96875 25.5 49.992188 25.484375 49.992188 25.476562 C 49.992188 25.472656 50.003906 25.460938 50.019531 25.457031 C 50.050781 25.445312 50.128906 25.386719 50.128906 25.375 C 50.128906 25.371094 50.144531 25.363281 50.160156 25.359375 C 50.175781 25.355469 50.1875 25.34375 50.1875 25.335938 C 50.1875 25.328125 50.199219 25.316406 50.21875 25.308594 C 50.230469 25.300781 50.25 25.28125 50.257812 25.265625 C 50.265625 25.25 50.285156 25.222656 50.296875 25.210938 C 50.3125 25.195312 50.335938 25.160156 50.347656 25.132812 C 50.359375 25.101562 50.375 25.070312 50.386719 25.058594 C 50.398438 25.046875 50.40625 24.964844 50.398438 24.84375 C 50.394531 24.679688 50.386719 24.636719 50.351562 24.574219 C 50.328125 24.53125 50.296875 24.492188 50.285156 24.484375 C 50.273438 24.476562 50.257812 24.453125 50.253906 24.4375 C 50.25 24.421875 50.234375 24.402344 50.21875 24.398438 C 50.199219 24.394531 50.1875 24.382812 50.1875 24.371094 C 50.1875 24.359375 50.175781 24.347656 50.160156 24.34375 C 50.144531 24.339844 50.128906 24.332031 50.128906 24.328125 C 50.128906 24.324219 50.121094 24.316406 50.109375 24.308594 C 50.101562 24.300781 50.082031 24.292969 50.070312 24.285156 C 50.0625 24.277344 50.050781 24.269531 50.050781 24.265625 C 50.050781 24.261719 50.039062 24.253906 50.023438 24.25 C 50.007812 24.246094 49.992188 24.238281 49.992188 24.230469 C 49.992188 24.226562 49.972656 24.210938 49.945312 24.199219 C 49.917969 24.1875 49.882812 24.171875 49.867188 24.164062 C 49.851562 24.152344 49.828125 24.140625 49.808594 24.136719 C 49.789062 24.132812 49.777344 24.125 49.777344 24.117188 C 49.777344 24.113281 49.738281 24.097656 49.6875 24.082031 C 49.636719 24.066406 49.597656 24.050781 49.597656 24.046875 C 49.597656 24.039062 49.300781 23.949219 49.277344 23.949219 C 49.269531 23.949219 49.21875 23.9375 49.167969 23.925781 C 49.117188 23.910156 49.066406 23.902344 49.054688 23.902344 C 49.046875 23.902344 49.007812 23.894531 48.972656 23.882812 C 48.9375 23.871094 48.898438 23.863281 48.882812 23.863281 C 48.867188 23.863281 48.847656 23.859375 48.832031 23.855469 C 48.820312 23.851562 48.800781 23.847656 48.789062 23.847656 C 48.777344 23.847656 48.726562 23.839844 48.671875 23.832031 C 48.617188 23.824219 48.566406 23.816406 48.554688 23.816406 C 48.542969 23.816406 48.523438 23.8125 48.507812 23.808594 C 48.488281 23.804688 48.449219 23.800781 48.421875 23.800781 C 48.390625 23.800781 48.355469 23.796875 48.339844 23.789062 C 48.328125 23.785156 48.296875 23.78125 48.269531 23.78125 C 48.246094 23.78125 48.195312 23.777344 48.160156 23.773438 C 48.125 23.765625 48.042969 23.761719 47.984375 23.757812 C 47.917969 23.753906 47.863281 23.746094 47.859375 23.746094 C 47.851562 23.742188 47.773438 23.738281 47.6875 23.738281 C 47.574219 23.738281 47.511719 23.734375 47.488281 23.730469 C 47.453125 23.722656 47.171875 23.722656 45.421875 23.722656 C 44.304688 23.722656 43.382812 23.722656 43.378906 23.726562 Z M 43.378906 23.726562 "/>
<path style=" stroke:none;fill-rule:nonzero;fill:rgb(0%,0%,0%);fill-opacity:1;" d="M 54.1875 23.726562 C 54.171875 23.734375 54.160156 23.75 54.160156 23.765625 C 54.160156 23.792969 54.167969 23.800781 54.199219 23.804688 C 54.214844 23.804688 54.257812 23.808594 54.285156 23.816406 C 54.316406 23.820312 54.367188 23.824219 54.398438 23.824219 C 54.429688 23.824219 54.5 23.832031 54.550781 23.839844 C 54.601562 23.847656 54.660156 23.859375 54.679688 23.859375 C 54.695312 23.863281 54.710938 23.867188 54.710938 23.871094 C 54.710938 23.878906 54.734375 23.886719 54.761719 23.894531 C 54.789062 23.902344 54.832031 23.921875 54.855469 23.9375 L 54.898438 23.964844 L 54.898438 25.734375 L 54.847656 25.769531 C 54.785156 25.808594 54.660156 25.847656 54.566406 25.859375 C 54.527344 25.867188 54.496094 25.871094 54.488281 25.875 C 54.480469 25.878906 54.4375 25.882812 54.394531 25.882812 C 54.355469 25.882812 54.300781 25.882812 54.273438 25.886719 C 54.25 25.890625 54.21875 25.898438 54.203125 25.898438 C 54.164062 25.90625 54.148438 25.972656 54.183594 25.988281 C 54.203125 25.996094 54.429688 25.996094 55.648438 25.996094 L 57.089844 25.996094 L 57.101562 25.976562 C 57.140625 25.914062 57.078125 25.886719 56.878906 25.878906 C 56.8125 25.878906 56.746094 25.871094 56.726562 25.867188 C 56.710938 25.863281 56.683594 25.859375 56.671875 25.859375 C 56.640625 25.859375 56.484375 25.808594 56.484375 25.800781 C 56.484375 25.796875 56.472656 25.789062 56.457031 25.785156 C 56.4375 25.78125 56.417969 25.769531 56.410156 25.757812 C 56.40625 25.75 56.390625 25.738281 56.375 25.730469 C 56.359375 25.726562 56.351562 25.628906 56.347656 25.390625 C 56.34375 25.109375 56.347656 25.054688 56.371094 25.046875 C 56.386719 25.042969 56.402344 25.03125 56.410156 25.023438 C 56.421875 25.007812 56.488281 24.980469 56.515625 24.980469 C 56.523438 24.980469 56.546875 24.976562 56.566406 24.96875 C 56.601562 24.960938 56.699219 24.960938 57.953125 24.957031 C 59.480469 24.957031 59.375 24.960938 59.375 24.910156 C 59.375 24.859375 59.4375 24.859375 57.996094 24.859375 C 57.140625 24.859375 56.707031 24.859375 56.636719 24.855469 C 56.523438 24.847656 56.402344 24.816406 56.402344 24.796875 C 56.402344 24.789062 56.390625 24.78125 56.375 24.777344 C 56.332031 24.765625 56.328125 23.992188 56.375 23.976562 C 56.390625 23.96875 56.402344 23.957031 56.402344 23.949219 C 56.402344 23.941406 56.417969 23.929688 56.433594 23.925781 C 56.449219 23.921875 56.464844 23.914062 56.464844 23.910156 C 56.464844 23.902344 56.617188 23.855469 56.71875 23.835938 L 56.789062 23.820312 L 58.351562 23.820312 C 59.808594 23.820312 59.917969 23.820312 59.964844 23.832031 C 59.988281 23.835938 60.023438 23.839844 60.042969 23.839844 C 60.078125 23.839844 60.1875 23.855469 60.273438 23.875 C 60.304688 23.882812 60.339844 23.890625 60.351562 23.890625 C 60.382812 23.890625 60.710938 23.996094 60.710938 24.003906 C 60.710938 24.011719 60.71875 24.015625 60.730469 24.019531 C 60.761719 24.023438 60.867188 24.097656 60.867188 24.113281 C 60.867188 24.125 60.878906 24.136719 60.894531 24.144531 C 60.90625 24.148438 60.921875 24.179688 60.925781 24.210938 L 60.9375 24.265625 L 61.210938 24.265625 L 61.21875 24.242188 C 61.222656 24.230469 61.234375 24.21875 61.242188 24.21875 C 61.269531 24.207031 61.265625 23.84375 61.242188 23.839844 C 61.230469 23.835938 61.222656 23.828125 61.222656 23.816406 C 61.222656 23.78125 61.117188 23.734375 61.042969 23.734375 C 61.023438 23.734375 61.003906 23.730469 60.996094 23.726562 C 60.976562 23.71875 54.21875 23.71875 54.1875 23.726562 Z M 54.1875 23.726562 "/>
<path style=" stroke:none;fill-rule:nonzero;fill:rgb(0%,0%,0%);fill-opacity:1;" d="M 62.59375 23.734375 C 62.539062 23.757812 62.550781 23.78125 62.628906 23.804688 C 62.691406 23.820312 62.714844 23.824219 62.804688 23.824219 C 62.871094 23.824219 62.917969 23.828125 62.933594 23.832031 C 62.945312 23.835938 62.96875 23.839844 62.980469 23.839844 C 63.023438 23.839844 63.199219 23.894531 63.242188 23.917969 C 63.265625 23.933594 63.296875 23.960938 63.304688 23.976562 C 63.335938 24.023438 63.335938 25.65625 63.304688 25.714844 C 63.292969 25.738281 63.265625 25.769531 63.242188 25.78125 C 63.203125 25.804688 63.019531 25.863281 62.980469 25.863281 C 62.96875 25.863281 62.945312 25.867188 62.933594 25.871094 C 62.917969 25.878906 62.875 25.882812 62.824219 25.882812 C 62.777344 25.882812 62.734375 25.882812 62.726562 25.886719 C 62.722656 25.890625 62.699219 25.894531 62.679688 25.894531 C 62.625 25.894531 62.558594 25.917969 62.558594 25.941406 C 62.558594 25.949219 62.574219 25.964844 62.589844 25.976562 L 62.621094 25.996094 L 65.484375 25.996094 L 65.507812 25.976562 C 65.539062 25.949219 65.535156 25.914062 65.496094 25.90625 C 65.453125 25.894531 65.332031 25.882812 65.261719 25.882812 C 65.226562 25.882812 65.183594 25.878906 65.167969 25.871094 C 65.152344 25.867188 65.125 25.863281 65.109375 25.863281 C 65.078125 25.863281 64.859375 25.792969 64.859375 25.785156 C 64.859375 25.78125 64.84375 25.773438 64.828125 25.765625 C 64.792969 25.753906 64.792969 25.703125 64.785156 24.859375 C 64.78125 24.097656 64.785156 23.964844 64.808594 23.957031 C 64.824219 23.949219 64.84375 23.9375 64.847656 23.925781 C 64.863281 23.90625 65.042969 23.851562 65.148438 23.832031 C 65.183594 23.828125 65.25 23.824219 65.296875 23.824219 C 65.355469 23.824219 65.40625 23.820312 65.457031 23.808594 C 65.519531 23.792969 65.53125 23.789062 65.53125 23.769531 C 65.53125 23.753906 65.519531 23.738281 65.507812 23.734375 C 65.488281 23.722656 65.453125 23.722656 64.058594 23.722656 L 62.628906 23.722656 Z M 62.59375 23.734375 "/>
<path style=" stroke:none;fill-rule:nonzero;fill:rgb(0%,0%,0%);fill-opacity:1;" d="M 66.980469 23.730469 C 66.9375 23.746094 66.933594 23.78125 66.972656 23.792969 C 67.023438 23.8125 67.09375 23.824219 67.183594 23.824219 C 67.246094 23.824219 67.292969 23.828125 67.324219 23.835938 C 67.351562 23.839844 67.382812 23.847656 67.390625 23.847656 C 67.417969 23.847656 67.613281 23.910156 67.613281 23.917969 C 67.613281 23.921875 67.628906 23.933594 67.648438 23.9375 C 67.679688 23.949219 67.683594 24.003906 67.683594 24.851562 C 67.683594 25.703125 67.679688 25.753906 67.648438 25.765625 C 67.628906 25.773438 67.613281 25.78125 67.613281 25.785156 C 67.613281 25.796875 67.398438 25.863281 67.363281 25.863281 C 67.347656 25.863281 67.324219 25.867188 67.308594 25.871094 C 67.289062 25.878906 67.246094 25.882812 67.203125 25.882812 C 67.164062 25.882812 67.09375 25.886719 67.042969 25.894531 C 66.964844 25.90625 66.957031 25.910156 66.949219 25.933594 C 66.945312 25.945312 66.957031 25.964844 66.976562 25.976562 L 67.007812 25.996094 L 70.121094 25.996094 C 73.179688 25.996094 73.238281 25.996094 73.257812 25.984375 C 73.269531 25.976562 73.277344 25.957031 73.277344 25.9375 C 73.277344 25.914062 73.269531 25.90625 73.242188 25.898438 C 73.214844 25.894531 72.628906 25.894531 71.480469 25.894531 C 70.355469 25.894531 69.753906 25.890625 69.746094 25.886719 C 69.742188 25.882812 69.695312 25.882812 69.652344 25.882812 C 69.597656 25.882812 69.558594 25.878906 69.542969 25.871094 C 69.527344 25.867188 69.507812 25.863281 69.492188 25.863281 C 69.457031 25.863281 69.273438 25.804688 69.226562 25.777344 C 69.175781 25.753906 69.175781 25.75 69.167969 25.484375 C 69.160156 25.339844 69.15625 24.933594 69.15625 24.589844 L 69.15625 23.957031 L 69.214844 23.929688 C 69.289062 23.886719 69.332031 23.875 69.46875 23.847656 C 69.5625 23.828125 69.601562 23.824219 69.679688 23.824219 C 69.859375 23.824219 69.972656 23.773438 69.882812 23.734375 L 69.855469 23.722656 L 68.433594 23.722656 C 67.078125 23.722656 67.007812 23.722656 66.980469 23.730469 Z M 66.980469 23.730469 "/>
<path style=" stroke:none;fill-rule:nonzero;fill:rgb(0%,0%,0%);fill-opacity:1;" d="M 73.804688 23.726562 C 73.796875 23.726562 73.789062 23.746094 73.789062 23.765625 C 73.789062 23.792969 73.796875 23.800781 73.839844 23.8125 C 73.878906 23.820312 73.921875 23.824219 73.984375 23.824219 C 74.050781 23.824219 74.09375 23.828125 74.128906 23.835938 C 74.15625 23.839844 74.1875 23.847656 74.195312 23.847656 C 74.230469 23.847656 74.433594 23.917969 74.449219 23.933594 C 74.453125 23.945312 74.472656 23.953125 74.484375 23.957031 C 74.5 23.960938 74.507812 24.203125 74.511719 24.957031 C 74.519531 26.09375 74.5 25.996094 74.683594 25.996094 C 74.867188 25.996094 74.851562 26.09375 74.851562 25.070312 C 74.851562 24.054688 74.839844 24.136719 74.988281 24.136719 C 75.085938 24.136719 75.128906 24.148438 75.175781 24.195312 C 75.195312 24.210938 75.234375 24.238281 75.257812 24.253906 C 75.285156 24.269531 75.304688 24.285156 75.304688 24.285156 C 75.304688 24.289062 75.320312 24.304688 75.339844 24.316406 C 75.363281 24.332031 75.386719 24.351562 75.390625 24.359375 C 75.398438 24.367188 75.417969 24.378906 75.433594 24.382812 C 75.449219 24.386719 75.460938 24.394531 75.460938 24.40625 C 75.460938 24.414062 75.476562 24.425781 75.492188 24.429688 C 75.507812 24.433594 75.519531 24.445312 75.519531 24.453125 C 75.519531 24.460938 75.535156 24.472656 75.550781 24.480469 C 75.566406 24.484375 75.578125 24.496094 75.578125 24.503906 C 75.578125 24.511719 75.589844 24.523438 75.605469 24.527344 C 75.644531 24.546875 75.738281 24.617188 75.738281 24.625 C 75.738281 24.632812 75.75 24.640625 75.765625 24.644531 C 75.78125 24.648438 75.796875 24.65625 75.796875 24.664062 C 75.796875 24.667969 75.808594 24.675781 75.824219 24.679688 C 75.839844 24.683594 75.855469 24.695312 75.855469 24.703125 C 75.855469 24.710938 75.867188 24.722656 75.882812 24.734375 C 75.941406 24.769531 75.992188 24.808594 75.992188 24.816406 C 75.992188 24.824219 76.007812 24.835938 76.027344 24.84375 C 76.046875 24.851562 76.0625 24.863281 76.066406 24.875 C 76.070312 24.882812 76.085938 24.890625 76.101562 24.898438 C 76.117188 24.902344 76.128906 24.914062 76.128906 24.917969 C 76.128906 24.925781 76.152344 24.941406 76.175781 24.960938 C 76.203125 24.976562 76.238281 25.003906 76.257812 25.023438 C 76.277344 25.039062 76.296875 25.054688 76.308594 25.058594 C 76.320312 25.058594 76.328125 25.066406 76.328125 25.070312 C 76.328125 25.078125 76.339844 25.085938 76.355469 25.089844 C 76.371094 25.09375 76.386719 25.101562 76.386719 25.109375 C 76.386719 25.121094 76.417969 25.144531 76.503906 25.199219 C 76.523438 25.214844 76.542969 25.230469 76.542969 25.238281 C 76.542969 25.246094 76.554688 25.253906 76.570312 25.257812 C 76.589844 25.261719 76.601562 25.269531 76.601562 25.277344 C 76.601562 25.285156 76.617188 25.296875 76.632812 25.304688 C 76.648438 25.308594 76.660156 25.320312 76.660156 25.328125 C 76.660156 25.339844 76.675781 25.347656 76.691406 25.351562 C 76.707031 25.359375 76.71875 25.363281 76.71875 25.371094 C 76.71875 25.375 76.738281 25.390625 76.757812 25.402344 C 76.78125 25.417969 76.796875 25.429688 76.796875 25.433594 C 76.796875 25.441406 76.859375 25.484375 76.910156 25.511719 C 76.925781 25.519531 76.9375 25.53125 76.9375 25.535156 C 76.9375 25.539062 76.949219 25.550781 76.964844 25.5625 C 77.03125 25.601562 77.074219 25.632812 77.074219 25.644531 C 77.074219 25.652344 77.085938 25.664062 77.101562 25.667969 C 77.117188 25.671875 77.132812 25.679688 77.132812 25.683594 C 77.132812 25.6875 77.148438 25.703125 77.171875 25.714844 C 77.195312 25.726562 77.210938 25.742188 77.210938 25.746094 C 77.210938 25.757812 77.28125 25.808594 77.328125 25.835938 C 77.339844 25.839844 77.347656 25.851562 77.347656 25.855469 C 77.347656 25.863281 77.363281 25.871094 77.378906 25.878906 C 77.394531 25.886719 77.40625 25.894531 77.40625 25.898438 C 77.40625 25.90625 77.421875 25.914062 77.4375 25.917969 C 77.453125 25.921875 77.46875 25.929688 77.46875 25.9375 C 77.46875 25.945312 77.488281 25.960938 77.515625 25.972656 C 77.566406 25.996094 77.570312 25.996094 77.691406 25.996094 C 77.832031 25.996094 77.855469 25.992188 77.910156 25.945312 C 77.929688 25.929688 77.953125 25.914062 77.960938 25.914062 C 77.96875 25.910156 77.976562 25.902344 77.976562 25.894531 C 77.976562 25.882812 77.992188 25.875 78.007812 25.871094 C 78.023438 25.867188 78.039062 25.859375 78.039062 25.851562 C 78.039062 25.847656 78.050781 25.835938 78.066406 25.832031 C 78.082031 25.824219 78.097656 25.8125 78.097656 25.808594 C 78.097656 25.800781 78.109375 25.789062 78.125 25.78125 C 78.140625 25.777344 78.15625 25.765625 78.15625 25.757812 C 78.15625 25.75 78.214844 25.703125 78.285156 25.664062 C 78.300781 25.65625 78.3125 25.644531 78.3125 25.636719 C 78.3125 25.632812 78.328125 25.621094 78.34375 25.613281 C 78.359375 25.609375 78.371094 25.597656 78.371094 25.59375 C 78.371094 25.585938 78.445312 25.535156 78.488281 25.507812 C 78.5 25.503906 78.507812 25.492188 78.507812 25.488281 C 78.507812 25.480469 78.519531 25.472656 78.535156 25.460938 C 78.59375 25.429688 78.648438 25.390625 78.648438 25.382812 C 78.648438 25.375 78.65625 25.371094 78.664062 25.367188 C 78.675781 25.367188 78.691406 25.355469 78.695312 25.34375 C 78.703125 25.335938 78.726562 25.316406 78.746094 25.304688 C 78.769531 25.289062 78.785156 25.277344 78.785156 25.273438 C 78.785156 25.269531 78.796875 25.261719 78.8125 25.257812 C 78.828125 25.253906 78.84375 25.242188 78.84375 25.234375 C 78.84375 25.222656 78.859375 25.214844 78.875 25.210938 C 78.890625 25.207031 78.902344 25.195312 78.902344 25.191406 C 78.902344 25.179688 78.96875 25.128906 79.03125 25.09375 C 79.046875 25.085938 79.058594 25.070312 79.058594 25.0625 C 79.058594 25.058594 79.074219 25.046875 79.089844 25.039062 C 79.105469 25.03125 79.117188 25.019531 79.117188 25.015625 C 79.117188 25.007812 79.132812 24.996094 79.148438 24.992188 C 79.164062 24.988281 79.179688 24.980469 79.179688 24.976562 C 79.179688 24.96875 79.191406 24.960938 79.207031 24.953125 C 79.222656 24.949219 79.238281 24.9375 79.238281 24.933594 C 79.238281 24.925781 79.246094 24.917969 79.253906 24.910156 C 79.265625 24.90625 79.28125 24.890625 79.296875 24.882812 C 79.308594 24.871094 79.332031 24.855469 79.347656 24.847656 C 79.414062 24.796875 79.453125 24.769531 79.453125 24.761719 C 79.453125 24.757812 79.46875 24.746094 79.484375 24.738281 C 79.546875 24.699219 79.589844 24.664062 79.589844 24.652344 C 79.589844 24.648438 79.605469 24.636719 79.621094 24.632812 C 79.636719 24.628906 79.648438 24.617188 79.648438 24.609375 C 79.648438 24.601562 79.664062 24.589844 79.679688 24.585938 C 79.695312 24.582031 79.710938 24.574219 79.710938 24.566406 C 79.710938 24.5625 79.71875 24.554688 79.726562 24.550781 C 79.738281 24.546875 79.761719 24.53125 79.785156 24.511719 C 79.859375 24.449219 79.878906 24.433594 79.902344 24.429688 C 79.914062 24.425781 79.925781 24.414062 79.925781 24.40625 C 79.925781 24.394531 79.9375 24.386719 79.953125 24.382812 C 79.96875 24.378906 79.984375 24.367188 79.984375 24.359375 C 79.984375 24.351562 80.03125 24.316406 80.105469 24.273438 C 80.113281 24.265625 80.121094 24.257812 80.121094 24.253906 C 80.125 24.25 80.140625 24.234375 80.160156 24.222656 C 80.183594 24.210938 80.199219 24.191406 80.199219 24.1875 C 80.199219 24.179688 80.230469 24.164062 80.265625 24.15625 C 80.34375 24.132812 80.449219 24.128906 80.503906 24.148438 C 80.539062 24.160156 80.542969 24.1875 80.535156 24.933594 C 80.535156 25.429688 80.523438 25.710938 80.511719 25.726562 C 80.464844 25.789062 80.328125 25.84375 80.191406 25.859375 C 80.152344 25.867188 80.121094 25.871094 80.113281 25.875 C 80.105469 25.878906 80.0625 25.882812 80.015625 25.882812 C 79.964844 25.882812 79.921875 25.882812 79.914062 25.886719 C 79.910156 25.890625 79.878906 25.894531 79.847656 25.894531 C 79.789062 25.902344 79.789062 25.902344 79.789062 25.941406 C 79.789062 25.96875 79.796875 25.984375 79.816406 25.988281 C 79.832031 25.992188 80.230469 25.996094 81.273438 25.996094 L 82.707031 25.992188 L 82.726562 25.964844 C 82.753906 25.921875 82.71875 25.902344 82.601562 25.890625 C 82.546875 25.886719 82.476562 25.882812 82.445312 25.882812 C 82.414062 25.882812 82.378906 25.878906 82.375 25.875 C 82.367188 25.871094 82.34375 25.867188 82.324219 25.863281 C 82.273438 25.859375 82.089844 25.804688 82.089844 25.796875 C 82.089844 25.789062 82.074219 25.785156 82.058594 25.78125 C 82.042969 25.773438 82.03125 25.765625 82.03125 25.757812 C 82.03125 25.746094 82.019531 25.734375 82.007812 25.734375 C 81.988281 25.726562 81.980469 25.542969 81.972656 24.855469 C 81.96875 24.085938 81.972656 23.984375 82 23.972656 C 82.015625 23.964844 82.03125 23.953125 82.03125 23.941406 C 82.03125 23.933594 82.042969 23.921875 82.058594 23.917969 C 82.074219 23.914062 82.089844 23.910156 82.089844 23.902344 C 82.089844 23.894531 82.28125 23.839844 82.316406 23.839844 C 82.328125 23.839844 82.351562 23.835938 82.363281 23.832031 C 82.378906 23.828125 82.421875 23.824219 82.480469 23.824219 C 82.546875 23.824219 82.59375 23.820312 82.644531 23.808594 C 82.710938 23.792969 82.71875 23.789062 82.71875 23.765625 C 82.71875 23.75 82.707031 23.734375 82.695312 23.726562 C 82.675781 23.722656 82.433594 23.722656 81.714844 23.722656 C 80.6875 23.722656 80.726562 23.71875 80.582031 23.75 C 80.519531 23.765625 80.398438 23.8125 80.398438 23.824219 C 80.398438 23.828125 80.378906 23.84375 80.359375 23.855469 C 80.335938 23.867188 80.320312 23.878906 80.320312 23.886719 C 80.320312 23.890625 80.300781 23.902344 80.28125 23.917969 C 80.257812 23.929688 80.238281 23.945312 80.238281 23.949219 C 80.238281 23.957031 80.226562 23.964844 80.210938 23.96875 C 80.195312 23.972656 80.179688 23.980469 80.179688 23.992188 C 80.179688 24 80.167969 24.011719 80.152344 24.015625 C 80.136719 24.019531 80.121094 24.027344 80.121094 24.03125 C 80.121094 24.035156 80.109375 24.046875 80.09375 24.054688 C 80.078125 24.0625 80.042969 24.089844 80.011719 24.113281 C 79.980469 24.136719 79.945312 24.160156 79.929688 24.167969 C 79.917969 24.175781 79.90625 24.1875 79.90625 24.195312 C 79.90625 24.203125 79.890625 24.214844 79.875 24.21875 C 79.859375 24.222656 79.847656 24.234375 79.847656 24.242188 C 79.847656 24.253906 79.832031 24.261719 79.816406 24.265625 C 79.800781 24.269531 79.789062 24.28125 79.789062 24.289062 C 79.789062 24.292969 79.765625 24.3125 79.742188 24.332031 C 79.667969 24.375 79.628906 24.402344 79.628906 24.410156 C 79.628906 24.410156 79.601562 24.429688 79.570312 24.449219 C 79.539062 24.46875 79.511719 24.488281 79.511719 24.492188 C 79.511719 24.5 79.496094 24.511719 79.472656 24.527344 C 79.453125 24.539062 79.429688 24.558594 79.421875 24.570312 C 79.414062 24.582031 79.402344 24.59375 79.390625 24.59375 C 79.382812 24.597656 79.375 24.601562 79.375 24.609375 C 79.375 24.613281 79.363281 24.621094 79.347656 24.625 C 79.332031 24.632812 79.316406 24.644531 79.3125 24.652344 C 79.308594 24.660156 79.289062 24.671875 79.269531 24.679688 C 79.253906 24.6875 79.238281 24.699219 79.238281 24.707031 C 79.238281 24.710938 79.21875 24.726562 79.199219 24.738281 C 79.175781 24.753906 79.160156 24.769531 79.160156 24.773438 C 79.160156 24.777344 79.144531 24.785156 79.128906 24.789062 C 79.113281 24.792969 79.097656 24.800781 79.097656 24.808594 C 79.097656 24.816406 79.074219 24.839844 79.042969 24.859375 C 78.96875 24.90625 78.90625 24.957031 78.878906 24.980469 C 78.871094 24.992188 78.851562 25.003906 78.839844 25.007812 C 78.832031 25.011719 78.824219 25.019531 78.824219 25.023438 C 78.824219 25.03125 78.808594 25.039062 78.792969 25.042969 C 78.777344 25.046875 78.765625 25.054688 78.765625 25.066406 C 78.765625 25.074219 78.75 25.085938 78.734375 25.089844 C 78.71875 25.097656 78.707031 25.109375 78.707031 25.117188 C 78.707031 25.125 78.699219 25.132812 78.6875 25.132812 C 78.664062 25.144531 78.546875 25.230469 78.546875 25.238281 C 78.546875 25.246094 78.535156 25.253906 78.519531 25.257812 C 78.503906 25.261719 78.488281 25.273438 78.488281 25.28125 C 78.488281 25.289062 78.476562 25.300781 78.460938 25.304688 C 78.445312 25.308594 78.429688 25.316406 78.429688 25.320312 C 78.429688 25.335938 78.359375 25.347656 78.261719 25.347656 C 78.207031 25.347656 78.15625 25.34375 78.144531 25.34375 C 78.109375 25.335938 77.976562 25.257812 77.976562 25.242188 C 77.976562 25.234375 77.964844 25.226562 77.949219 25.222656 C 77.933594 25.21875 77.917969 25.210938 77.917969 25.207031 C 77.917969 25.199219 77.898438 25.183594 77.871094 25.167969 C 77.84375 25.148438 77.820312 25.132812 77.820312 25.125 C 77.820312 25.121094 77.808594 25.113281 77.792969 25.105469 C 77.777344 25.101562 77.761719 25.09375 77.761719 25.082031 C 77.761719 25.074219 77.753906 25.066406 77.746094 25.0625 C 77.738281 25.0625 77.683594 25.023438 77.632812 24.984375 C 77.582031 24.941406 77.535156 24.902344 77.523438 24.898438 C 77.515625 24.890625 77.5 24.882812 77.496094 24.878906 C 77.488281 24.875 77.472656 24.863281 77.457031 24.851562 C 77.441406 24.839844 77.425781 24.832031 77.425781 24.828125 C 77.425781 24.824219 77.410156 24.808594 77.386719 24.796875 C 77.367188 24.785156 77.347656 24.769531 77.347656 24.761719 C 77.347656 24.757812 77.335938 24.75 77.320312 24.746094 C 77.304688 24.742188 77.289062 24.730469 77.289062 24.722656 C 77.289062 24.714844 77.277344 24.703125 77.261719 24.699219 C 77.246094 24.695312 77.230469 24.683594 77.222656 24.671875 C 77.214844 24.660156 77.203125 24.648438 77.195312 24.644531 C 77.175781 24.640625 77.089844 24.578125 77.074219 24.554688 C 77.0625 24.546875 77.046875 24.53125 77.035156 24.53125 C 77.023438 24.527344 77.015625 24.519531 77.015625 24.511719 C 77.015625 24.507812 77 24.496094 76.984375 24.488281 C 76.96875 24.476562 76.957031 24.464844 76.957031 24.460938 C 76.957031 24.457031 76.941406 24.453125 76.925781 24.445312 C 76.910156 24.441406 76.898438 24.433594 76.898438 24.425781 C 76.898438 24.417969 76.828125 24.367188 76.769531 24.332031 C 76.753906 24.324219 76.738281 24.308594 76.738281 24.300781 C 76.738281 24.292969 76.726562 24.285156 76.710938 24.277344 C 76.695312 24.273438 76.679688 24.265625 76.679688 24.261719 C 76.679688 24.253906 76.667969 24.242188 76.652344 24.234375 C 76.585938 24.191406 76.464844 24.097656 76.464844 24.085938 C 76.464844 24.082031 76.449219 24.074219 76.433594 24.070312 C 76.417969 24.066406 76.40625 24.058594 76.40625 24.050781 C 76.40625 24.046875 76.398438 24.039062 76.386719 24.035156 C 76.378906 24.03125 76.355469 24.015625 76.335938 23.996094 C 76.320312 23.980469 76.28125 23.949219 76.253906 23.933594 C 76.230469 23.917969 76.207031 23.898438 76.207031 23.894531 C 76.207031 23.890625 76.191406 23.878906 76.167969 23.867188 C 76.148438 23.855469 76.128906 23.839844 76.128906 23.839844 C 76.128906 23.8125 75.9375 23.738281 75.871094 23.738281 C 75.855469 23.738281 75.828125 23.734375 75.816406 23.730469 C 75.792969 23.722656 75.65625 23.722656 74.800781 23.722656 C 74.257812 23.722656 73.808594 23.722656 73.804688 23.726562 Z M 73.804688 23.726562 "/>
</g>
</svg>
